<svg xmlns="http://www.w3.org/2000/svg" viewBox="0 0 1247 711.44"><defs><style>.cls-1{fill:#5d21d1;}.cls-2,.cls-5,.cls-7{fill:none;}.cls-2{stroke:#fe7624;}.cls-2,.cls-5,.cls-6,.cls-7{stroke-linecap:round;stroke-linejoin:round;stroke-width:6px;}.cls-3{fill:#fe7624;}.cls-4,.cls-6{fill:#fff;}.cls-5{stroke:#fff;}.cls-6,.cls-7{stroke:#2e186a;}</style></defs><g id="Layer_2" data-name="Layer 2"><g id="solid_II" data-name="solid II"><g id="product_launch" data-name="product launch"><path id="flag" class="cls-1" d="M1034.6,613.41c-12.71,7.12-36.19,15.62-55.63-3.35-20-19.5-34.33-19.13-41-17.25a4.92,4.92,0,0,0-5.27,2.44l-42.05,76.47a18.92,18.92,0,0,1-16.58,9.8H737a4.9,4.9,0,1,0,0,9.8H874.07a28.72,28.72,0,0,0,25.17-14.88l24.63-44.79c9.17,1.17,21.68,5.33,33.42,16.79,22.55,22,49.1,9.56,58.83,3.69a16.1,16.1,0,0,0,5.72-5.87l16.47-29.14A2.72,2.72,0,0,0,1034.6,613.41Z"/><g id="flags"><path class="cls-1" d="M354.21,524.93a2.46,2.46,0,0,0-3.42-1.08c-.39.22-4.63,2.82-22.91,11.88l-8.45,4.13c-39.9,19.22-98.77,43.62-122.74,33.54a2.45,2.45,0,0,0-2.77.61c-.08.09-8.7,9.43-27.47,18.16-17.34,8.07-47.14,17.26-90.63,15.21a2.45,2.45,0,0,0-2.54,2.82,2.52,2.52,0,0,0,2.4,2.08c3.88.18,7.64.27,11.31.29l1.76,11.82a2.81,2.81,0,0,0,5.22,1l7.57-13.17c5.34-.3,10.43-.77,15.26-1.37l2.75,10.24a2.81,2.81,0,0,0,5.26.45l6-12.94c4.06-.8,7.9-1.69,11.52-2.64l2.29,8.52a2.81,2.81,0,0,0,5.26.45l6.16-13.21c4.55-1.63,8.61-3.31,12.17-5l1.6,5.94a2.81,2.81,0,0,0,5.26.46l6.22-13.36a87.47,87.47,0,0,0,15-11.26c5,1.76,11.27,2.31,18.29,1.92l4.17,10.36a2.81,2.81,0,0,0,5.23-.06l4.56-12.07c4.36-.81,8.89-1.84,13.54-3.08l1.89,8.09a2.81,2.81,0,0,0,5.24.63l6.46-12.75c4.38-1.42,8.8-3,13.24-4.59l1.67,7.32a2.81,2.81,0,0,0,5.19.75l7.75-13.74c3.93-1.59,7.83-3.23,11.66-4.89l1.88,7a2.81,2.81,0,0,0,5.26.46l6.24-13.4c4.18-1.92,8.24-3.83,12.12-5.7l1.52,5.66a2.81,2.81,0,0,0,5.26.45l5.7-12.24c15.54-7.8,18.37-9.59,19.87-10.44A2.54,2.54,0,0,0,354.21,524.93Z"/><path class="cls-1" d="M473.27,489.66a2.45,2.45,0,0,0-2.76.62c-.09.09-8.71,9.43-27.47,18.16-17.34,8.07-47.15,17.26-90.64,15.21a2.45,2.45,0,0,0-2.54,2.82,2.52,2.52,0,0,0,2.41,2.08c3.88.18,7.64.27,11.31.28l1.72,11.57a2.9,2.9,0,0,0,5.38,1l7.44-12.95c5.35-.3,10.43-.77,15.26-1.37l2.69,10a2.9,2.9,0,0,0,5.43.47l5.92-12.72c4.07-.8,7.91-1.69,11.52-2.64l3.18,9.55a2.9,2.9,0,0,0,5.47.08L432.65,518c4.56-1.63,8.61-3.31,12.18-5l1.53,5.71a2.9,2.9,0,0,0,5.43.47l6.12-13.14a87.54,87.54,0,0,0,15-11.27"/><path class="cls-1" d="M1110.4,545.61a2.45,2.45,0,0,0-3.25-1.44c-38.52,16.07-79,8-120.3-23.91-31.06-24-50.89-53.25-51.09-53.54a2.45,2.45,0,0,0-4.07,2.73,233.69,233.69,0,0,0,16.2,20.49l4.94,23.47a2.89,2.89,0,0,0,5.31.89l4.94-8.3c4.16,4.05,8.66,8.18,13.49,12.24l5.23,18.08a2.89,2.89,0,0,0,5.21.75l4.6-7.22q6.18,4.33,12.37,8l7.25,20.33a2.89,2.89,0,0,0,5.23.46l6.38-11.25q5.94,2.49,11.87,4.34l9.36,16.45a2.89,2.89,0,0,0,5.27-.59l3.55-11.68a107.25,107.25,0,0,0,15.32,1.13l1.24,0,10.13,13.17a2.89,2.89,0,0,0,5.06-1l4.11-14.25a108,108,0,0,0,20.16-6.2A2.54,2.54,0,0,0,1110.4,545.61Z"/><line class="cls-2" x1="75.36" y1="708.44" x2="75.36" y2="609.59"/><line class="cls-2" x1="195.74" y1="575.65" x2="195.74" y2="706.84"/><line class="cls-2" x1="352.33" y1="525.82" x2="352.33" y2="706.64"/><line class="cls-2" x1="1108.37" y1="546.05" x2="1108.37" y2="708.44"/></g><g id="laptop"><path id="laptop-2" data-name="laptop" class="cls-3" d="M924.36,454.1l-362,2.35a15.25,15.25,0,0,0-13.45,7.62L432.18,676.6l-296.78.2s-5.11,29.77,37.63,31.63l640-.83L938,473.1C942.75,464.23,935.41,454,924.36,454.1Z"/><path id="screen" class="cls-4" d="M469.36,675.76,775,674.45l94.56-184.28c3.67-7.06-1.18-15.71-8.76-15.63l-277.78,3.37Z"/><path class="cls-5" d="M784.39,707.6,908.17,476.31c4.72-8.88-2.62-19.08-13.67-19"/></g><g id="rocket"><path class="cls-1" d="M485.7,548.42l33.5,61.63a3.28,3.28,0,0,0,6.12-1.64l-2.24-28s19.59,67.45,46.47,69.13,52.73-71,52.73-71L615.22,609a3.28,3.28,0,0,0,6.12,1.64l35.8-62.23"/><path class="cls-1" d="M443.8,310.24s-79.87,108.2-69.6,205H550.49V308Z"/><path class="cls-1" d="M695,310.24s79.87,108.2,69.6,205H588.33V308Z"/><path class="cls-6" d="M641.34,515.24c67.7-121.71,60.33-218.32,40.56-284.5s-66.18-140-110.3-140-90.52,73.78-110.3,140-28.15,162.79,39.55,284.5L481.92,556H660.39l-19-40.75Z"/><ellipse class="cls-1" cx="571.6" cy="281.09" rx="50.45" ry="60"/><ellipse class="cls-1" cx="571.6" cy="358.13" rx="8.41" ry="10"/><ellipse class="cls-1" cx="603.95" cy="358.13" rx="8.41" ry="10"/><ellipse class="cls-1" cx="536.65" cy="358.13" rx="8.41" ry="10"/><ellipse class="cls-6" cx="571.6" cy="275.24" rx="38.06" ry="45.26"/><path class="cls-1" d="M580.5,89V18.13c0-.22,0-.44,0-.65a11,11,0,1,0-17.75,0c0,.21,0,.43,0,.65V88.89c-18.5,3.79-37,19.3-53.89,40.06a237.21,237.21,0,0,1,66.95-5.37,343.43,343.43,0,0,1,61.16,8.78C619.46,110,599.89,93.22,580.5,89Z"/><path class="cls-1" d="M653.73,169.27a278,278,0,0,0-81.59-15.21c-34.79-1.33-61.22,6.46-82.94,15a322.69,322.69,0,0,0-23.12,53.7c26-12.67,57.86-26.06,106.8-25.17,46.46.84,78.47,11.06,102.75,21.88A322.83,322.83,0,0,0,653.73,169.27Z"/><path class="cls-1" d="M638.65,514.77q4.83-8.68,9.16-17.2c-15.33-6.24-37.31-11.37-76.39-11-39.53-.33-61.6,5-76.89,11.32q4.29,8.4,9.05,17s34.7-6.76,67.84-6.48C604,508.07,638.65,514.77,638.65,514.77Z"/></g><g id="clouds"><path id="cloud" class="cls-6" d="M823.1,674.45H665.88s-22.63-20.3-12.24-36.9,37.71-20.59,46.56-3.84c0,0,3.86-32.1,36.81-29.63s30.36,36.79,30.36,36.79,41.71-29.53,40.6,16.6C808,657.47,810.63,674.41,823.1,674.45Z"/><path id="cloud-2" data-name="cloud" class="cls-6" d="M322.62,674.71H479.83s22.64-20.29,12.24-36.9-37.7-20.59-46.56-3.84c0,0-3.85-32.09-36.8-29.63s-30.37,36.79-30.37,36.79-41.7-29.52-40.59,16.61C337.75,657.74,335.08,674.67,322.62,674.71Z"/></g><line id="line" class="cls-7" x1="3" y1="708.44" x2="1244" y2="708.44"/></g></g></g></svg>