<svg xmlns="http://www.w3.org/2000/svg" viewBox="0 0 1693 790.71"><defs><style>.cls-1,.cls-13{fill:#5d21d1;}.cls-2,.cls-8{fill:#fff;}.cls-3{fill:#fe7624;}.cls-4,.cls-5,.cls-7,.cls-9{fill:none;}.cls-11,.cls-12,.cls-13,.cls-4{stroke:#fff;}.cls-12,.cls-13,.cls-4,.cls-5,.cls-7,.cls-8,.cls-9{stroke-linecap:round;}.cls-11,.cls-12,.cls-13,.cls-4,.cls-5,.cls-7,.cls-8,.cls-9{stroke-linejoin:round;}.cls-11,.cls-12,.cls-13,.cls-4,.cls-5,.cls-7,.cls-8{stroke-width:6px;}.cls-5{stroke:#fe7624;}.cls-11,.cls-12,.cls-6{fill:#2e186a;}.cls-7,.cls-8,.cls-9{stroke:#2e186a;}.cls-9{stroke-width:8px;}.cls-10{fill:#968bb4;}</style></defs><g id="Layer_2" data-name="Layer 2"><g id="solid_III" data-name="solid III"><g id="not_found" data-name="not found"><g id="folders_bg" data-name="folders bg"><g id="folder_III" data-name="folder III"><rect class="cls-1" x="157.92" y="605.84" width="289.97" height="72.57" transform="translate(945.03 339.21) rotate(90)"/><rect class="cls-2" x="233.47" y="569.85" width="135.02" height="38.96" transform="translate(890.31 288.36) rotate(90)"/><rect class="cls-3" x="294.66" y="649.34" width="12.64" height="38.96" transform="translate(969.79 367.84) rotate(90)"/><circle class="cls-4" cx="300.23" cy="737.29" r="13.68"/><line class="cls-5" x1="316" y1="553.94" x2="287.05" y2="553.94"/><line class="cls-5" x1="316" y1="568.81" x2="287.05" y2="568.81"/><line class="cls-5" x1="316" y1="583.68" x2="287.05" y2="583.68"/></g><g id="folder_II" data-name="folder II"><rect class="cls-1" x="230.19" y="606.14" width="289.97" height="72.57" transform="translate(1017.6 267.24) rotate(90)"/><rect class="cls-2" x="305.73" y="570.15" width="135.02" height="38.96" transform="translate(962.88 216.39) rotate(90)"/><rect class="cls-6" x="366.93" y="649.63" width="12.64" height="38.96" transform="translate(1042.36 295.87) rotate(90)"/><circle class="cls-4" cx="372.5" cy="737.59" r="13.68"/><line class="cls-7" x1="387.82" y1="616.1" x2="358.87" y2="616.1"/><line class="cls-7" x1="387.82" y1="539.37" x2="358.87" y2="539.37"/><line class="cls-7" x1="387.82" y1="630.97" x2="358.87" y2="630.97"/><line class="cls-7" x1="387.82" y1="645.84" x2="358.87" y2="645.84"/></g><g id="folder"><rect class="cls-1" x="86.37" y="606.14" width="289.97" height="72.57" transform="translate(873.78 411.06) rotate(90)"/><rect class="cls-2" x="161.91" y="570.15" width="135.02" height="38.96" transform="translate(819.06 360.21) rotate(90)"/><rect class="cls-3" x="223.1" y="649.63" width="12.64" height="38.96" transform="translate(898.54 439.69) rotate(90)"/><circle class="cls-4" cx="228.68" cy="737.59" r="13.68"/><line class="cls-7" x1="244" y1="616.1" x2="215.05" y2="616.1"/><line class="cls-7" x1="244" y1="539.37" x2="215.05" y2="539.37"/><line class="cls-7" x1="244" y1="630.97" x2="215.05" y2="630.97"/><line class="cls-7" x1="244" y1="645.84" x2="215.05" y2="645.84"/></g></g><g id="man"><g id="hands"><g id="hand_II" data-name="hand II"><path class="cls-8" d="M348.25,404.31a47.37,47.37,0,0,0-10.68-32.16C325.15,357,325,347.39,318,340.14s-18.11-3.94-8.11,20.65,14.32,34.69,14.32,34.69Z"/><path class="cls-8" d="M291,369.62c1.08,0,69.16-3.47,77.27,64"/><path class="cls-8" d="M337.06,504.34s-8.44-49.81-19.5-67.1-35.76-16-35.76-16S219,365.57,209.91,355.51s-5.61-19.65,10.64-8.47,65.09,46.61,65.09,46.61,81.42-27.57,94.66,50.64l15,46.42Z"/><path class="cls-8" d="M280.73,418.78s-32.25-71.65-37.08-85.15,1.7-20.62,12.67-2.71,35.93,59.41,35.93,59.41"/><path class="cls-8" d="M277.68,413.05s-2.57-61.46-2.56-73.37c0-19.63,11.79-25.21,14.83,1.25,2,17.67,4.27,50.24,4.27,50.24"/></g><g id="hand"><path class="cls-8" d="M1204,404.31a47.33,47.33,0,0,1,10.67-32.16c12.43-15.14,12.56-24.76,19.59-32s18.1-3.94,8.1,20.65S1228,395.48,1228,395.48Z"/><path class="cls-8" d="M1261.19,369.62c-1.08,0-69.17-3.47-77.27,64"/><path class="cls-8" d="M1215.16,504.34s8.44-49.81,19.5-67.1,35.76-16,35.76-16,62.78-55.68,71.89-65.74,5.61-19.65-10.64-8.47-65.09,46.61-65.09,46.61-81.42-27.57-94.66,50.64l-15,46.42Z"/><path class="cls-8" d="M1271.49,418.78s32.25-71.65,37.08-85.15-1.7-20.62-12.66-2.71S1260,390.33,1260,390.33"/><path class="cls-8" d="M1274.54,413.05s2.57-61.46,2.56-73.37c0-19.63-11.79-25.21-14.83,1.25-2,17.67-4.26,50.24-4.26,50.24"/></g></g><g id="hoodie"><path class="cls-3" d="M1233.86,477.59c1.33-15.3-.67-21.36-.67-21.36-35.18,3.72-63.39-29.88-63.39-29.88s-3.36,3.8-12.83,16-27.45-1.58-38.07,15.94c-8.58,14.16-39,88.37-50.37,116.32C1034,472,989.61,419.86,917.19,406.74,907.75,349.55,867,277,704.8,289.66,604,307.83,573.24,359.47,580.21,414h-.48s-65.26-.87-101.82,107.74c-10.71-25.2-21.58-49.86-26.25-57.58-10.63-17.52-46.92-9.65-56.4-21.82s-12.84-16-12.84-16S354.22,460,319,456.23c0,0-2,6.06-.66,21.36s-17.27,17.05-13.12,37.06,69.67,199.46,69.67,199.46c6.18,16.68,14.34,68.87,48.2,70.73a1.35,1.35,0,0,0,1.18.87c53.69-.15,710.21.4,710.21.4s.06-.71.13-2.05c29.25-6.9,36.83-54.22,42.66-69.95,0,0,65.53-179.45,69.67-199.46S1232.53,492.89,1233.86,477.59Z"/><path id="welt" class="cls-6" d="M1234.16,475.15c2.51-16-.59-22-.59-22-32.14,6.95-61.84-29.59-61.84-29.59s-4,3.55-13.58,17c-3.87,5.43-7.81,6-11.82,7.12,13.35,43.42,75.88,49.42,97.67,49.95C1242.35,488.24,1232.26,487.3,1234.16,475.15Z"/><path id="welt-2" data-name="welt" class="cls-6" d="M317.94,475.27c-2.51-16,.71-22.08.71-22.08,32.15,6.95,61.85-29.59,61.85-29.59s4.84.54,14.45,14c3.87,5.43,10.52,10,14.53,11.11-13.34,43.41-80.15,49.3-101.93,49.83C309.19,489.1,319.84,487.43,317.94,475.27Z"/><path id="shape" class="cls-6" d="M579.84,410.61c-19.54,4-39.79,14.26-57.7,34.13,16.67,24.12,74.88,106.16,182.2,123.6a10.88,10.88,0,0,0-.47-2.19C644.39,541.74,586.13,473.83,579.84,410.61Z"/><path id="shape_II" data-name="shape II" class="cls-6" d="M917.12,406.3c3.72,22.22,2.7,42.17,2.2,53.95-1.65,38.94-19.12,66.11-30.11,85.49l-.78,19.94c45.36-10.69,81-94.69,87.1-136C959.43,420.85,956.55,414.28,917.12,406.3Z"/><g id="lines"><path class="cls-9" d="M696.72,544.18s43.08,74.37,47.57,121.34"/><path class="cls-9" d="M882.52,539.62S862.35,613.09,867.28,660"/><path class="cls-7" d="M475.24,524.34c.45,1.37,48.25,102.86,48.25,102.86"/><line class="cls-7" x1="1071.01" y1="576.8" x2="1038.25" y2="633.81"/><path class="cls-7" d="M616.59,707s-4,81.42-46.56,79.52"/></g></g><path id="shirt" class="cls-2" d="M858.47,786.37C849.6,717.64,840.16,616,854.66,573c22.89-67.74,14-152.76-1.46-165.07S667,398,667,398l-30.69,10.57S753.16,517.13,787.76,715.22c5.43,31.06,9.1,55.47,11.54,74.62"/><path id="neck" class="cls-8" d="M693.57,340.35l-2.47,43.33-25.5,17.58s66.79,46.25,126.52,115.33c0,0,36.65-25.91,45.22-108l-19.22-3-92-54.5Z"/><g id="head"><path id="ear" class="cls-8" d="M664.67,261.26s-39.41,5.44-28.23,40.54S688.89,311,688.89,311l-11.68-50.39Z"/><path id="face" class="cls-8" d="M758.43,121c10.31-2.1,81.13-15.09,95.85,44.48s13.93,127.34,10.82,158.61-141.29,33.29-149.33,31.48-18.3-9.92-18.3-9.92L668.12,255S647.66,143.66,758.43,121Z"/><path id="beard" class="cls-10" d="M681,252.65c7.36,5.89,29.45,42.22,35.81,59.63,0,0,42.08-20.23,104.72-28.56,0,0,34.29-3.34,48.4-.82,0,0,4.3,63.8-19.68,99.92s-83.68,33.86-113.44,17.36-35.39-25.39-44.17-45.77-34.62-97.18-34.62-97.18Z"/><path id="hair" class="cls-6" d="M664.65,268.31s-21.85-27.05-32.42-56.57c-10-27.75-.26-59.18,24.29-75,20.54-13.23,37.62-6.71,37.62-6.71s-27.58-37.26,3.09-76.57a63.18,63.18,0,0,1,44.24-24.16c42.43-3.65,59.59,31.17,59.59,31.17S836.83-29.32,935.28,9.93c9.93,4,22.05,16.8,28.17,25.68,37.12,53.86-56.27,133.62-108.26,145.12-57.1,12.62-92,6.82-112.22-5.38C757.76,182.19,752.08,271.84,664.65,268.31Z"/><polyline id="nose" class="cls-9" points="814.52 243.94 827.08 298.48 810.93 302.15"/><ellipse id="eye_II" data-name="eye II" class="cls-6" cx="834.96" cy="257.1" rx="5.61" ry="8.82" transform="translate(-23.39 94.34) rotate(-6.38)"/><ellipse id="eye" class="cls-6" cx="781.65" cy="260.65" rx="5.61" ry="8.82" transform="translate(-24.12 88.44) rotate(-6.38)"/><path id="brow_II" data-name="brow II" class="cls-9" d="M761.88,246.41s22.81-1.36,22.52-16.6"/><path id="brow" class="cls-9" d="M827.53,208s15-5.91,20.32,6.47"/><path id="mouth" class="cls-7" d="M809.57,326.47a106.26,106.26,0,0,1-24.29,1.61c-5-.21-8.79,2.88-7.31,6,2.59,5.48,8.78,12,23.48,10.29,14.48-1.72,17.37-8.41,17.34-13.56C818.77,327.71,814.1,325.58,809.57,326.47Z"/></g></g><g id="folders"><g id="folder_II-2" data-name="folder II"><rect class="cls-6" x="840.14" y="712.3" width="307.35" height="72.57" transform="matrix(-1, 0, 0, -1, 1991.18, 1492.45)"/><rect class="cls-2" x="1007.77" y="726.97" width="135.02" height="38.96" transform="translate(2154.1 1487.78) rotate(179.73)"/><rect class="cls-3" x="989.48" y="727.35" width="12.64" height="38.96" transform="translate(1995.14 1488.91) rotate(179.73)"/><circle class="cls-4" cx="908.68" cy="748.28" r="13.68"/><line class="cls-5" x1="1110.75" y1="761.3" x2="1110.61" y2="732.35"/><line class="cls-5" x1="1095.88" y1="761.37" x2="1095.74" y2="732.42"/><line class="cls-5" x1="1081.01" y1="761.44" x2="1080.87" y2="732.49"/></g><g id="folder-2" data-name="folder"><rect class="cls-6" x="893.25" y="639.54" width="289.97" height="76.26" transform="translate(2076.48 1355.34) rotate(180)"/><rect class="cls-2" x="1023.52" y="654.41" width="135.02" height="38.96" transform="translate(2182.06 1347.79) rotate(180)"/><rect class="cls-3" x="1005.23" y="654.41" width="12.64" height="38.96" transform="translate(2023.09 1347.79) rotate(180)"/><circle class="cls-4" cx="943.07" cy="673.15" r="13.68"/><line class="cls-5" x1="1064.56" y1="688.47" x2="1064.56" y2="659.52"/><line class="cls-5" x1="1141.29" y1="688.47" x2="1141.29" y2="659.52"/><line class="cls-5" x1="1049.69" y1="688.47" x2="1049.69" y2="659.52"/><line class="cls-5" x1="1034.82" y1="688.47" x2="1034.82" y2="659.52"/></g></g><g id="pile_of_files" data-name="pile of files"><rect class="cls-1" x="1128.4" y="533.7" width="359.15" height="253.32"/><path class="cls-11" d="M1329.91,531.29V788.47"/><line class="cls-12" x1="1281.56" y1="561.76" x2="1444.07" y2="561.76"/><line class="cls-12" x1="1379.88" y1="652.77" x2="1484.29" y2="652.77"/><line class="cls-12" x1="1265.31" y1="737.68" x2="1468.86" y2="737.68"/><line class="cls-12" x1="1293.75" y1="630.02" x2="1188.53" y2="630.02"/><line class="cls-12" x1="1128.8" y1="590.2" x2="1192.59" y2="590.2"/><line class="cls-12" x1="1128.4" y1="707.21" x2="1253.12" y2="707.21"/><path class="cls-13" d="M1127.86,590.6c-26.82,10.56.81,28.23.81,28.23s6.91-20,42.25-28.15Z"/><path class="cls-13" d="M1488.6,652.35c26.81,10.56-.82,28.24-.82,28.24s-6.9-20-42.25-28.16Z"/><path class="cls-13" d="M1222.66,707.39s-62.23,11.74-60.69,48.35c0,0-49.88-18.3-33-48.35Z"/></g><line id="line" class="cls-9" x1="4" y1="786.71" x2="1689" y2="786.71"/></g></g></g></svg>