<svg xmlns="http://www.w3.org/2000/svg" viewBox="0 0 1787 933.73"><defs><style>.cls-1,.cls-11,.cls-6,.cls-9{fill:none;}.cls-1,.cls-10,.cls-4{stroke:#2e186a;}.cls-1,.cls-10,.cls-4,.cls-6,.cls-9{stroke-linecap:round;}.cls-1,.cls-10,.cls-11,.cls-4,.cls-6,.cls-9{stroke-linejoin:round;stroke-width:6px;}.cls-2{fill:#feba92;}.cls-10,.cls-3{fill:#fe7624;}.cls-4,.cls-8{fill:#fff;}.cls-5{fill:#2e186a;}.cls-6{stroke:#fe7624;}.cls-7{fill:#5d21d1;}.cls-11,.cls-9{stroke:#fff;}</style></defs><g id="Layer_2" data-name="Layer 2"><g id="solid_III" data-name="solid III"><g id="eCommerce"><g id="flower"><path class="cls-1" d="M1287.14,516.57s-88.58,70.86-49.25,231.83"/><path class="cls-2" d="M1254.46,708.25a9.16,9.16,0,0,1-3.11-7.93c6.35-58,32.5-117.72,73.28-139.62,41.92-22.52,70.52,40,12.41,98-43.73,43.7-67.08,50.82-76,51.66a8.87,8.87,0,0,1-6.62-2.15Z"/><path class="cls-1" d="M1213.2,746.6s-12.59-45.54-50.86-48.84"/><path class="cls-1" d="M1358.64,565.86s-73.36,73.49-102.71,140.25"/><path class="cls-1" d="M1345.63,645.59s-30.15-1-62.64,13.16"/><path class="cls-1" d="M1310.47,573.12s-36.72,65.81-34,94.09"/><path class="cls-1" d="M1308.84,681.53s-27.51-1-45.42,10.11"/><path class="cls-2" d="M1202.65,655.19c-3.14,2.17-6.71,2.55-9.54,1-54.71-30.1-100.86-86.28-101.6-146.94-.76-62.34,76.59-75.42,104.5,21.17,21,72.69,16,105.37,12.23,117.09a15,15,0,0,1-5.59,7.69Z"/><path class="cls-1" d="M1199.13,657s-22.28-151.92-86.33-186.54"/><path class="cls-1" d="M1094.69,518.61c14,6.31,64,29.66,83,50.58"/><path class="cls-1" d="M1192.83,529.69c2,21.41,4,58.7-4.88,70.39"/><path class="cls-1" d="M1190.92,623.3s-49.29-16.9-71.45-34.83"/><ellipse class="cls-3" cx="1163.5" cy="681.55" rx="15.37" ry="5.01" transform="translate(331.72 1742.87) rotate(-82.27)"/><ellipse class="cls-3" cx="1150.6" cy="687.87" rx="4.63" ry="14.03" transform="translate(-112.21 1137.71) rotate(-50.48)"/><ellipse class="cls-3" cx="1174.96" cy="689.34" rx="15.24" ry="5.05" transform="translate(-185.73 624.24) rotate(-27.66)"/><ellipse class="cls-3" cx="1149.15" cy="703.5" rx="14" ry="4.64" transform="translate(-196.7 639.14) rotate(-28.74)"/><ellipse class="cls-3" cx="1167.3" cy="709.6" rx="4.61" ry="14.1" transform="translate(-189.23 548.51) rotate(-24.52)"/><ellipse class="cls-3" cx="1290.38" cy="503.84" rx="20.36" ry="9.91" transform="translate(211.87 1373.18) rotate(-60.2)"/><ellipse class="cls-3" cx="1299.13" cy="520.96" rx="20.18" ry="10" transform="translate(-10.31 26.48) rotate(-1.16)"/><ellipse class="cls-3" cx="1268.04" cy="507.24" rx="8.86" ry="18.16" transform="translate(-52.29 856.43) rotate(-36.62)"/><ellipse class="cls-3" cx="1278.1" cy="534.07" rx="18.2" ry="8.84" transform="translate(269.69 1483.74) rotate(-65.96)"/><ellipse class="cls-3" cx="1271.17" cy="521.34" rx="16.27" ry="8.06" transform="translate(-48.56 139.26) rotate(-6.15)"/><path class="cls-4" d="M1319.92,756.58l-37,167.61H1165.37l-37-167.61c-2.12-9.58,3.86-19,12.07-19h167.4C1316.06,737.6,1322,747,1319.92,756.58Z"/></g><g id="woman"><path id="body" class="cls-3" d="M1109.14,447a56.67,56.67,0,0,0-44.49-47c-19.28-4-38.85-8.13-44.34-9.51l-.74,3-123.12-9.47-1.34-17.38-51.88.47c-58.6,5.38-102.44,99-124.1,155.91l-12,31.6,91.4-34.75c-.28,17.15,1.35,34.28,5.65,50.38,22.06,82.57-21.54,107.62-21.54,107.62L759,786.14l-29-2V929.06l309.15-.63-4.82-249.79ZM1034.4,586v-1.24l.15,1.21Z"/><polygon class="cls-5" points="1037.8 805.55 732.92 808.48 730.06 929.06 1039.21 929.06 1037.8 805.55"/><line class="cls-1" x1="831.89" y1="450.77" x2="813.61" y2="487.95"/><path class="cls-6" d="M1011.73,366.8c10.86,2.79,23.61-8.82,28.63-26.18,2.72-9.41,2.62-18.6.26-25.6"/><path class="cls-6" d="M859.74,341.72c10.87,2.79,23.62-8.81,28.64-26.17,2.72-9.42,2.62-18.61.25-25.6"/><path class="cls-5" d="M1047.57,185.89c-21.28-20.4-25.11-113.38,46.53-166.16C1166.62-33.7,1212.22,36.34,1222,54.52s12.9,65-48.5,101S1071.87,209.18,1047.57,185.89Z"/><path class="cls-3" d="M1008.24,221.76l1.34,1.14a20.25,20.25,0,0,0,27.62-1.9l20.28-21.82a18.08,18.08,0,0,0-1.33-26.38l-1.34-1.14a20.25,20.25,0,0,0-27.62,1.9l-20.28,21.81A18.08,18.08,0,0,0,1008.24,221.76Z"/><ellipse class="cls-5" cx="940.44" cy="221.4" rx="66.69" ry="40.49" transform="translate(109.44 714.24) rotate(-43.92)"/><path class="cls-5" d="M955.88,249.77c21.19,29.63,49.69,43.76,73.76,43.16,25.57-.63,44.21-56,23-85.61s-79-49-99-35.58S934.69,220.15,955.88,249.77Z"/><ellipse class="cls-4" cx="1030.87" cy="292.53" rx="21.92" ry="20.84" transform="matrix(0.95, -0.31, 0.31, 0.95, -39.84, 335.41)"/><ellipse class="cls-4" cx="882.53" cy="266.28" rx="21.92" ry="20.84" transform="translate(-39.04 287.93) rotate(-18.14)"/><path class="cls-4" d="M928.74,341.37,919,370.93l-26.64-1.73c-2.59,3.66-24.51,73.76,42.48,83.61,44,6.47,74.66-25.66,96-57L994.18,388l24.16-84.19Z"/><ellipse class="cls-4" cx="956.4" cy="274.85" rx="88.98" ry="69.22" transform="translate(402.88 1101.8) rotate(-72.24)"/><path class="cls-1" d="M947.47,295l-13-2.13a2.12,2.12,0,0,1-1.63-2.89l14-34.43"/><path class="cls-1" d="M991,243.59s-10.24-11.88-21-4.47"/><path class="cls-1" d="M938.59,233.49s-14.09-7.45-21.53,3.09"/><ellipse class="cls-5" cx="971.07" cy="270.66" rx="7.88" ry="5.28" transform="translate(608.76 1211.39) rotate(-84.51)"/><ellipse class="cls-5" cx="922.03" cy="266.21" rx="7.91" ry="5.26" transform="matrix(0.2, -0.98, 0.98, 0.2, 477.4, 1116.69)"/><path class="cls-5" d="M1010.14,196.1S982.52,207.53,984.19,225l-117.68-7.69S854.26,128,995,170.77Z"/><path class="cls-5" d="M1001.94,200.08s-9.32,58.53,28.49,74.53l.66-51.82Z"/><path class="cls-6" d="M877.76,278c-11-3.16-23.94,8.51-29,26.07s-.32,34.37,10.62,37.54l.38.1"/><path class="cls-6" d="M1029.74,303.09c-10.94-3.16-23.93,8.51-29,26.07s-.33,34.37,10.62,37.53l.38.11"/><path class="cls-1" d="M941.61,320.47s27.44,4.48,34.17-17.65"/></g><g id="computer"><polygon class="cls-7" points="630.49 810.3 598.71 926.93 789.75 926.93 758.82 809.32 630.49 810.3"/><path class="cls-7" d="M943.94,814.62H461.41a9.6,9.6,0,0,1-9.57-9.57l2.73-311.3c0-5.26,1.58-15.11,6.84-15.11H943.94a9.6,9.6,0,0,1,9.57,9.57V805.05A9.6,9.6,0,0,1,943.94,814.62Z"/><rect id="screen" class="cls-8" x="506.99" y="510" width="370.56" height="256.86" rx="11"/><rect class="cls-5" x="570.01" y="587.28" width="242.93" height="166.12" rx="9.24"/><circle class="cls-9" cx="691.62" cy="866.01" r="23.08"/><line class="cls-9" x1="742.65" y1="815.02" x2="768.19" y2="923.76"/><rect id="screen-2" data-name="screen" class="cls-9" x="478.18" y="499.73" width="428.19" height="286.4" rx="11"/><line id="line" class="cls-9" x1="930.43" y1="481.29" x2="930.43" y2="811.66"/><g id="marquise"><path class="cls-10" d="M839.57,520.39H426.21l55.21-19.33a32.22,32.22,0,0,1,10.61-1.8H898.3Z"/><path class="cls-10" d="M468.38,520.31H426.21s-.06,29.6-.06,30c0,11,9.48,19.87,21.18,19.87s21.17-8.89,21.17-19.87C468.5,549.58,468.38,520.31,468.38,520.31Z"/><path class="cls-4" d="M509.61,520.31H467.44s-.06,29.6-.06,30c0,11,9.48,19.87,21.18,19.87s21.18-8.89,21.18-19.87C509.74,549.58,509.61,520.31,509.61,520.31Z"/><path class="cls-10" d="M550.84,520.31H508.68s-.06,29.6-.06,30c0,11,9.48,19.87,21.17,19.87S551,561.28,551,550.3C551,549.58,550.84,520.31,550.84,520.31Z"/><path class="cls-4" d="M592.08,520.31H549.91s-.06,29.6-.06,30c0,11,9.48,19.87,21.18,19.87s21.17-8.89,21.17-19.87C592.2,549.58,592.08,520.31,592.08,520.31Z"/><path class="cls-10" d="M633.31,520.31H591.14s-.06,29.6-.06,30c0,11,9.48,19.87,21.18,19.87s21.18-8.89,21.18-19.87C633.44,549.58,633.31,520.31,633.31,520.31Z"/><path class="cls-4" d="M674.54,520.31H632.38s-.06,29.6-.06,30c0,11,9.48,19.87,21.17,19.87s21.18-8.89,21.18-19.87C674.67,549.58,674.54,520.31,674.54,520.31Z"/><path class="cls-10" d="M715.78,520.31H673.61s-.06,29.6-.06,30c0,11,9.48,19.87,21.18,19.87s21.17-8.89,21.17-19.87C715.9,549.58,715.78,520.31,715.78,520.31Z"/><path class="cls-4" d="M757,520.31H714.84s-.06,29.6-.06,30c0,11,9.48,19.87,21.18,19.87s21.18-8.89,21.18-19.87C757.14,549.58,757,520.31,757,520.31Z"/><path class="cls-10" d="M798.24,520.31H756.08s-.07,29.6-.07,30c0,11,9.49,19.87,21.18,19.87s21.18-8.89,21.18-19.87C798.37,549.58,798.24,520.31,798.24,520.31Z"/><path class="cls-4" d="M839.48,520.31H797.31s-.06,29.6-.06,30c0,11,9.48,19.87,21.17,19.87s21.18-8.89,21.18-19.87C839.6,549.58,839.48,520.31,839.48,520.31Z"/><line class="cls-1" x1="468.96" y1="520.39" x2="527.21" y2="499.26"/><line class="cls-1" x1="508.62" y1="520.39" x2="566.87" y2="499.26"/><line class="cls-1" x1="550.38" y1="520.39" x2="608.63" y2="499.26"/><line class="cls-1" x1="591.72" y1="520.39" x2="649.98" y2="499.26"/><line class="cls-1" x1="633.06" y1="520.39" x2="691.32" y2="499.26"/><line class="cls-1" x1="675.24" y1="520.39" x2="733.5" y2="499.26"/><line class="cls-1" x1="715.74" y1="520.39" x2="774" y2="499.26"/><line class="cls-1" x1="758.13" y1="520.39" x2="816.39" y2="499.26"/><line class="cls-1" x1="796.53" y1="520.39" x2="854.79" y2="499.26"/></g><rect id="shelf" class="cls-3" x="390.15" y="734.53" width="423.12" height="18.93" rx="4.66"/><g id="parcel"><rect class="cls-2" x="412.78" y="608.43" width="317.65" height="126.29" rx="17.64" transform="translate(1143.22 1343.15) rotate(-180)"/><line class="cls-11" x1="604.63" y1="608.78" x2="604.63" y2="733.5"/><rect class="cls-8" x="432.84" y="672.79" width="74.38" height="35.25" rx="6.64" transform="translate(940.06 1380.84) rotate(-180)"/></g><rect id="kayboard" class="cls-3" x="301.84" y="907.23" width="340.8" height="21.83" rx="5.64"/><rect id="mouse" class="cls-3" x="874.6" y="907.23" width="112.12" height="21.83" rx="5.64"/></g><g id="arm"><path class="cls-4" d="M842.19,646.8l-15.71-38.48c-4.78-8,2.43-15,10.25-9a39.77,39.77,0,0,1,10.37,11.55c10.38,17.17,33.39,53.23,32.15,51.84S842.19,646.8,842.19,646.8Z"/><path class="cls-4" d="M964.12,633.11l-82.85,18.28-40.62-20.74-54.21-16.52c-6.63-2-11.53,6.42-6.44,11.09,2.67,2.45,43.47,16.15,43.47,16.15l-51.93-5.84a6.09,6.09,0,0,0-5.44,9.82c3.41,4.22,9.51,4.54,17.68,6.38,5,1.12,37.05,4.93,37.05,4.93l-45.77,3.17c-11.31,1.27-10.95,17.47,10.56,14.76,11.19-1.42,24.82-1.33,34.3-3.94l-31,8.9c-10.16,6.23.31,17.72,44,4.52,26.57,21.37,40.5,25.37,64.45,11.29.12-.07,80.31-13.16,80.31-13.16Z"/><path class="cls-3" d="M1021,467.51l85.8-31.82,43.8,207.11A42,42,0,0,1,1118,689.38l-221,31.24a12.85,12.85,0,0,1-13.6-10.31l-.15-67.87a12.84,12.84,0,0,1,11.1-15.26l144.62-14.32Z"/><path class="cls-1" d="M967.11,615.48l66.07-11.56s28.7-.37,30.8,18.21"/><path class="cls-1" d="M1017.86,493.59l15.75,109.88s21.55-17.06,37.59,3.47"/></g><g id="mug"><path id="mug-2" data-name="mug" class="cls-7" d="M1089.68,805.52a35.14,35.14,0,0,0-7.26-.2,35.58,35.58,0,0,0-31.89,44.06,34.59,34.59,0,0,0,7.54,14.58,35.44,35.44,0,0,0,26.46,12.34v20.07a31.76,31.76,0,0,0,31.77,31.77h53.58a31.76,31.76,0,0,0,31.76-31.77V817.85a12.33,12.33,0,0,0-12.33-12.33Zm-17.5,50.13a19.48,19.48,0,0,1-6.76-13.44,19.69,19.69,0,0,1,18.16-21.06l1,0v39.3A19.45,19.45,0,0,1,1072.18,855.65Z"/><path id="dollar_sign" data-name="dollar sign" class="cls-8" d="M1146.37,885.38v4.26a3.32,3.32,0,0,1-3.31,3.3h0a3.32,3.32,0,0,1-3.3-3.31v-4.46a26.14,26.14,0,0,1-9.11-3.23,3.71,3.71,0,0,1-1.46-4.87l0-.09a3.81,3.81,0,0,1,5.34-1.55,20.24,20.24,0,0,0,9.3,2.89c2.8,0,4.55-1,4.55-3,0-6.21-18.51-2.53-18.49-14.93,0-5.36,3.81-9.06,9.86-10.2V846a3.29,3.29,0,0,1,3.31-3.29h0a3.29,3.29,0,0,1,3.29,3.3v3.85a28.44,28.44,0,0,1,7.82,2,3.78,3.78,0,0,1,1.89,5.13l-.08.15a3.82,3.82,0,0,1-5,1.85,22.36,22.36,0,0,0-7.92-2c-2.3,0-3.85.84-3.86,2.54,0,6.06,18.52,2.63,18.5,15.29C1157.78,881,1152.93,884.64,1146.37,885.38Z"/></g><line id="line-2" data-name="line" class="cls-1" x1="1784" y1="923.73" x2="3" y2="930.73"/></g></g></g></svg>