<svg xmlns="http://www.w3.org/2000/svg" viewBox="0 0 1441 783.5"><defs><style>.cls-1{fill:#feba91;}.cls-2,.cls-6{fill:#fff;}.cls-2,.cls-3,.cls-8{stroke:#2e186a;stroke-linejoin:round;stroke-width:6px;}.cls-2,.cls-3{stroke-linecap:round;}.cls-3,.cls-8{fill:none;}.cls-4{fill:#2e186a;}.cls-5{fill:#5d21d1;}.cls-7{fill:#fe7624;}</style></defs><g id="Layer_2" data-name="Layer 2"><g id="solid"><g id="Payment"><path id="wallet_back" data-name="wallet back" class="cls-1" d="M794,780.47H393.2a27.73,27.73,0,0,1-27.73-27.73V100.2A27.72,27.72,0,0,1,393.2,72.47H794a27.73,27.73,0,0,0-27.73,27.73V752.74A27.74,27.74,0,0,0,794,780.47Z"/><g id="banknotes"><g id="banknote_II" data-name="banknote II"><path class="cls-2" d="M473.4,127.8,508.07,9a8.31,8.31,0,0,1,10.31-5.65L779.26,79.47V156.7"/><path class="cls-3" d="M770.94,102.82,553.43,39.34a26.45,26.45,0,0,1-32.8,18l-.81-.26-21.36,73.17"/></g><g id="banknote"><path class="cls-2" d="M430.18,302,445.24,133.7a8.3,8.3,0,0,1,9-7.54l314.58,27.7v137.3"/><path class="cls-3" d="M765.38,179.64,504.61,156.31c-1.39,15.54-16.39,26.89-33.51,25.35l-1-.11-10.78,120.6"/></g><g id="line"><line class="cls-3" x1="401" y1="302.47" x2="546" y2="302.47"/><circle class="cls-4" cx="401" cy="302.47" r="7"/></g></g><g id="purse"><path id="sahpe_back" data-name="sahpe back" class="cls-4" d="M565,223.47h20a18,18,0,0,1,18,18v539a0,0,0,0,1,0,0H565a18,18,0,0,1-18-18v-521a18,18,0,0,1,18-18Z"/><path id="shape" class="cls-5" d="M1060,780.62H585.76a20,20,0,0,0,20-20V243.47a20,20,0,0,0-20-20H1060a20,20,0,0,1,20,20V760.62A20,20,0,0,1,1060,780.62Z"/><path id="line-2" data-name="line" class="cls-3" d="M585,226.46c9.94,0,18,7.53,18,16.82V778.89"/><g id="zipper"><line class="cls-3" x1="546.84" y1="258.88" x2="518" y2="258.88"/><line class="cls-3" x1="546.84" y1="280.52" x2="518" y2="280.52"/><line class="cls-3" x1="546.84" y1="323.79" x2="518" y2="323.79"/><line class="cls-3" x1="546.84" y1="345.42" x2="518" y2="345.42"/><line class="cls-3" x1="546.84" y1="367.06" x2="518" y2="367.06"/><line class="cls-3" x1="546.84" y1="388.69" x2="518" y2="388.69"/><line class="cls-3" x1="546.84" y1="410.33" x2="518" y2="410.33"/><line class="cls-3" x1="546.84" y1="431.96" x2="518" y2="431.96"/><line class="cls-3" x1="546.84" y1="453.6" x2="518" y2="453.6"/><line class="cls-3" x1="546.84" y1="475.23" x2="518" y2="475.23"/><line class="cls-3" x1="546.84" y1="496.87" x2="518" y2="496.87"/><line class="cls-3" x1="546.84" y1="518.5" x2="518" y2="518.5"/><line class="cls-3" x1="546.84" y1="540.14" x2="518" y2="540.14"/><line class="cls-3" x1="546.84" y1="561.77" x2="518" y2="561.77"/><line class="cls-3" x1="546.84" y1="583.41" x2="518" y2="583.41"/><line class="cls-3" x1="546.84" y1="626.68" x2="518" y2="626.68"/><line class="cls-3" x1="546.84" y1="648.31" x2="518" y2="648.31"/><line class="cls-3" x1="546.84" y1="669.95" x2="518" y2="669.95"/><line class="cls-3" x1="546.84" y1="691.58" x2="518" y2="691.58"/><line class="cls-3" x1="546.84" y1="713.22" x2="518" y2="713.22"/><line class="cls-3" x1="546.84" y1="734.85" x2="518" y2="734.85"/></g><g id="coin"><path id="shape-2" data-name="shape" class="cls-6" d="M603,588a97,97,0,1,0,0,189Z"/><path id="dollar_sign" data-name="dollar sign" class="cls-5" d="M603.16,678.66l-8.29,0q3.32-9.61,8.29-14.68V649.12a22,22,0,0,0-4.14,2.53,32.51,32.51,0,0,0-9.63,11.71,101.13,101.13,0,0,0-5.65,15.28H539.22q.84-9.79,7.56-14.87a24.19,24.19,0,0,1,14.87-5.07c2.21-.1,3.71-.6,4.48-1.49s1.16-2.38,1.16-4.48c0-2.33-.49-3.83-1.49-4.49s-2.88-1-5.65-1a28.45,28.45,0,0,0-14.62,4,32.26,32.26,0,0,0-11.21,11.13,37,37,0,0,0-5.23,16.28H514.47a2.34,2.34,0,0,0-1.83,1.08,4.38,4.38,0,0,0-.83,2.74,3.86,3.86,0,0,0,.91,2.57,2.68,2.68,0,0,0,2.08,1.09h14.29a42.89,42.89,0,0,0,4.73,17.19A30.89,30.89,0,0,0,545,715.44a30.46,30.46,0,0,0,16.28,4.4q10.47,0,16.78-5.57A34,34,0,0,0,587.23,702a145,145,0,0,0,5.48-16c2.68,0,6.17,0,10.45,0Zm-29.3,23.4q-4.58,5.66-12.55,5.65A20.18,20.18,0,0,1,546.53,702q-5.82-5.73-7-15.86,13.13-.17,39.87-.17h2.33Q578.42,696.42,573.86,702.06Z"/></g><g id="credit_cards" data-name="credit cards"><g id="credit_card" data-name="credit card"><path class="cls-6" d="M769,294.28H690.52c-10.48,0-19,7.09-19,15.83v63.46h97.27"/><rect class="cls-4" x="671" y="321.47" width="98" height="18"/></g><g id="credit_card-2" data-name="credit card"><path class="cls-6" d="M769,498.14H690.52c-10.48,0-19,7.08-19,15.82v63.46h97.27"/><rect class="cls-4" x="671" y="525.32" width="98" height="18"/></g><g id="line-3" data-name="line"><line class="cls-3" x1="648" y1="373.47" x2="770.22" y2="373.47"/><circle class="cls-4" cx="648" cy="373.47" r="7"/></g><g id="line-4" data-name="line"><line class="cls-3" x1="648" y1="577.32" x2="770.22" y2="577.32"/><circle class="cls-4" cx="648" cy="577.32" r="7"/></g></g></g><g id="smartphone"><rect id="shape-3" data-name="shape" class="cls-7" x="762" y="72.47" width="400" height="708" rx="20"/><rect id="screen" class="cls-6" x="842" y="118.96" width="285.11" height="562.51" rx="28.52"/><path id="button" class="cls-5" d="M991,758.47a29,29,0,1,1,29-29A29,29,0,0,1,991,758.47Zm0-52a23,23,0,1,0,23,23A23,23,0,0,0,991,706.47Z"/><circle id="shape-4" data-name="shape" class="cls-5" cx="934" cy="98.47" r="7"/><rect id="shape-5" data-name="shape" class="cls-5" x="953" y="92.47" width="85" height="12" rx="6"/><path id="line-5" data-name="line" class="cls-3" d="M822.52,780.49A28.4,28.4,0,0,1,794,752.22V106.73a28.4,28.4,0,0,1,28.52-28.27"/><rect id="shape-6" data-name="shape" class="cls-4" x="770.27" y="394.57" width="11.47" height="102.81" rx="5.73"/><path id="succes_icon" data-name="succes icon" class="cls-5" d="M1067.7,314a9.5,9.5,0,0,0-13.08,3l-23.41,37.62a81.17,81.17,0,1,0,13.65,14l25.89-41.6A9.49,9.49,0,0,0,1067.7,314ZM1055.47,417.7a75.11,75.11,0,1,1-27.45-58l-42.4,68.12L961.08,395.2a9.5,9.5,0,1,0-15.19,11.41l32.88,43.74a9.5,9.5,0,0,0,7.59,3.79h.42a9.52,9.52,0,0,0,7.65-4.47l47-75.55A74.61,74.61,0,0,1,1055.47,417.7Z"/></g><g id="watet_stripe" data-name="watet stripe"><path class="cls-7" d="M545.73,399.47H366.12v-307c0-11,15.48-20,26.53-20H316.94a20,20,0,0,0-20,20v668a20,20,0,0,0,20,20h69.18a20,20,0,0,1-20-20v-258H545.73a40.11,40.11,0,0,0,40.11-40.11V439.58A40.11,40.11,0,0,0,545.73,399.47Z"/><path id="elipse" class="cls-5" d="M537.84,474.47a24,24,0,1,1,24-24A24,24,0,0,1,537.84,474.47Zm0-42a18,18,0,1,0,18,18A18,18,0,0,0,537.84,432.47Z"/></g><path id="line-6" data-name="line" class="cls-8" d="M364.6,399.16V101.25c0-15.61,12-26.53,27.76-26.53"/><path id="line-7" data-name="line" class="cls-8" d="M393.12,780.5a28.4,28.4,0,0,1-28.52-28.27V502.38"/><line id="line-8" data-name="line" class="cls-3" x1="3" y1="780.47" x2="1438" y2="780.47"/></g></g></g></svg>