<svg xmlns="http://www.w3.org/2000/svg" viewBox="0 0 1840.7 594.16"><defs><style>.cls-1,.cls-3,.cls-4{fill:none;}.cls-1,.cls-5{stroke:#fe7624;}.cls-1,.cls-3,.cls-4,.cls-5{stroke-linecap:round;stroke-linejoin:round;}.cls-1,.cls-3,.cls-5{stroke-width:6px;}.cls-2{fill:#fe7624;}.cls-3,.cls-4{stroke:#2e186a;}.cls-4{stroke-width:15px;}.cls-5{fill:#fff;}.cls-6{fill:#2e186a;}</style></defs><g id="Layer_2" data-name="Layer 2"><g id="outline_II" data-name="outline II"><g id="Learning_II" data-name="Learning II"><g id="desk_stuff" data-name="desk stuff"><g id="organizer"><g id="scissors"><line class="cls-1" x1="1261.25" y1="297.84" x2="1271.24" y2="275.1"/><path class="cls-1" d="M1244.27,435.12c5.67-39.13,11.82-81.62,15.36-106"/><path class="cls-1" d="M1317.77,345.57c-12.37,37.25-37.68,113.33-42.33,127.77-4,12.39-9.51,25.8-20.07,31.22"/><path id="_2" data-name="2" class="cls-1" d="M1331.57,200.69h0a65.95,65.95,0,1,0-83,42.55,66.33,66.33,0,0,0,20.3,3.21,64.38,64.38,0,0,0,11.91-1.11L1271,275.57l30.64,9.88m-41.45-78.38a27.95,27.95,0,0,1,8.59-54.55A27.95,27.95,0,0,1,1295.4,189h0a27.94,27.94,0,0,1-35.17,18Z"/><path id="_1" data-name="1" class="cls-1" d="M1359.7,277.19A65.94,65.94,0,0,0,1456.6,241h0a65.95,65.95,0,1,0-128.56-24.75l-22.69,70.4,14.82,4.78m100.26-62.08a28,28,0,1,1-18-35.18,28,28,0,0,1,18,35.18Z"/><path class="cls-1" d="M1250.51,466.56c21.54-40.52,53.62-100.56,67.26-126.07"/><path class="cls-1" d="M1256.35,327.87l-19,58.88"/><path class="cls-1" d="M1322.13,290.4l-14.29-5.81c-1.53,3.09-8.79,9.71-18.12,14"/><path class="cls-1" d="M1300.24,328.55a14.12,14.12,0,0,1-.54,2.34,14.3,14.3,0,0,1-27.86-3.13"/></g><g id="pen"><polyline class="cls-1" points="1321.48 299.08 1325.01 252.16 1359.7 254.72 1356.36 299.08"/><line class="cls-1" x1="1304.86" y1="519.97" x2="1319.33" y2="327.73"/><line class="cls-1" x1="1353.47" y1="328.58" x2="1339.12" y2="519.43"/><path class="cls-2" d="M1320.18,267.38l41.35,3.11,8.86-117.71c2.59-34.49-3.19-41.71-18.42-42.86s-20.79,11.25-23.39,45.75Z"/><path class="cls-1" d="M1349.72,137.9l25.63,1.93c5.64.42,10,5.11,8.65,22.77l-6.54,87"/><circle class="cls-2" cx="1377.46" cy="249.57" r="6.52"/></g><g id="pencil"><path class="cls-1" d="M1224.05,299.08l-6-40.71A107.15,107.15,0,0,0,1204.48,220l-30.6-52.28a5.42,5.42,0,0,0-10,1.47l-14.07,58.93a107.36,107.36,0,0,0-1.77,40.68l4.51,30.32"/><path class="cls-1" d="M1256.35,518.83a25.05,25.05,0,0,0-.28-4.3l-27.76-186.8"/><line class="cls-1" x1="1156.98" y1="328.58" x2="1185.25" y2="518.83"/><path class="cls-2" d="M1197.73,208.43l-23.85-40.75a5.42,5.42,0,0,0-10,1.47L1153,214.93C1164.86,210.54,1185.82,204.12,1197.73,208.43Z"/><path class="cls-2" d="M1216.64,251c-.47-2.13-1-4.24-1.6-6.33-10-1.13-22.5-.06-31.28,9.44-12.94-7.57-27.41-2.85-36.79,2,.07,2.22.21,4.45.41,6.67,8.18-4.68,22.46-10.48,34.19-3l5.83,39.27,6.19.8-6.09-40.95C1195.21,249.92,1207.49,249.61,1216.64,251Z"/><polygon class="cls-2" points="1197.73 329.37 1191.66 329.37 1219.8 518.69 1225.88 518.83 1197.73 329.37"/></g><g id="basket"><g id="nets"><g id="net_light" data-name="net light"><line class="cls-3" x1="1176.06" y1="487.75" x2="1265.53" y2="374.87"/><line class="cls-3" x1="1189.36" y1="519.18" x2="1268.26" y2="419.2"/><line class="cls-3" x1="1225.88" y1="518.83" x2="1275.2" y2="457.2"/><line class="cls-3" x1="1258.97" y1="519.78" x2="1272.99" y2="502"/><line class="cls-3" x1="1165" y1="453.68" x2="1261" y2="334.63"/><line class="cls-3" x1="1243.22" y1="518.83" x2="1149.45" y2="405.81"/><line class="cls-3" x1="1204.13" y1="519.18" x2="1176.06" y2="487.75"/><line class="cls-3" x1="1264.18" y1="372.09" x2="1228.27" y2="328.58"/><line class="cls-3" x1="1267.09" y1="414.07" x2="1195.85" y2="329.07"/><line class="cls-3" x1="1273.36" y1="464.68" x2="1160.44" y2="328.58"/><line class="cls-3" x1="1272.78" y1="506.32" x2="1125.71" y2="329.07"/><line class="cls-3" x1="1136.4" y1="361.31" x2="1161.9" y2="328.99"/><line class="cls-3" x1="1144.51" y1="390.6" x2="1194.11" y2="327.74"/><line class="cls-3" x1="1154.79" y1="422.24" x2="1229.25" y2="328.58"/></g><g id="net"><line class="cls-3" x1="1398.61" y1="520.64" x2="1265.65" y2="356.34"/><line class="cls-3" x1="1359.97" y1="519.97" x2="1268.56" y2="407.01"/><line class="cls-3" x1="1322.53" y1="519.78" x2="1270.5" y2="455.48"/><line class="cls-3" x1="1289.21" y1="519.97" x2="1273.26" y2="500.25"/><line class="cls-3" x1="1419.35" y1="497.42" x2="1279.76" y2="328.58"/><line class="cls-3" x1="1300.67" y1="518.83" x2="1439.48" y2="348.34"/><line class="cls-3" x1="1339.12" y1="519.43" x2="1431.85" y2="404.83"/><line class="cls-3" x1="1375.42" y1="520.64" x2="1422.87" y2="462.01"/><line class="cls-3" x1="1408.9" y1="520.64" x2="1417.68" y2="509.79"/><line class="cls-3" x1="1266.33" y1="387.81" x2="1322.13" y2="327.74"/><line class="cls-3" x1="1265.65" y1="354.48" x2="1289.95" y2="330.01"/><line class="cls-3" x1="1268.56" y1="424.02" x2="1349.47" y2="327.74"/><line class="cls-3" x1="1272.43" y1="462.93" x2="1381.53" y2="328.58"/><line class="cls-3" x1="1273.52" y1="504.56" x2="1424.04" y2="328.99"/><line class="cls-3" x1="1431.39" y1="386.65" x2="1383.79" y2="327.84"/><line class="cls-3" x1="1437.68" y1="354.48" x2="1417.05" y2="328.99"/><line class="cls-3" x1="1429.16" y1="422.86" x2="1352.26" y2="327.84"/><line class="cls-3" x1="1422.87" y1="458.78" x2="1318.07" y2="329.28"/></g></g><g id="construction"><line class="cls-3" x1="1442.25" y1="327.82" x2="1416.31" y2="519.97"/><line class="cls-3" x1="1262.71" y1="328.99" x2="1274.35" y2="518.05"/><path class="cls-3" d="M1115.89,302.21a14.34,14.34,0,0,1,9-3.13h334.35a14.37,14.37,0,0,1,14.37,14.37h0a14.37,14.37,0,0,1-14.37,14.37h-200"/><line class="cls-3" x1="1259.26" y1="327.82" x2="1124.86" y2="327.82"/></g></g></g><g id="book"><g id="lines"><path class="cls-3" d="M314,336.17a133.61,133.61,0,0,1-8.8,45.78"/><line class="cls-3" x1="314.91" y1="352.05" x2="400.35" y2="367.82"/><line class="cls-3" x1="406.92" y1="386.71" x2="311.75" y2="369.14"/><line class="cls-3" x1="404.21" y1="377.37" x2="313.33" y2="360.6"/></g><path id="cover" class="cls-3" d="M397,351.49l-97-17.91c-6.88-1.27-11.5-7.46-10.33-13.82s7.7-10.49,14.58-9.22l85.19,15.72"/><path id="cover-2" data-name="cover" class="cls-3" d="M417.94,427.76,287,403.59c-6.88-1.26-11.5-7.45-10.33-13.81s7.7-10.5,14.58-9.23l119.36,22"/></g><path id="cable_back" data-name="cable back" class="cls-4" d="M175.69,502.21c-18.52,5.78-62.44,23.25-41.26,54"/><g id="binder"><g id="lines-2" data-name="lines"><line class="cls-5" x1="266.14" y1="483.32" x2="441.41" y2="509.29"/><line class="cls-5" x1="257.84" y1="466.65" x2="437.9" y2="493.32"/><line class="cls-5" x1="265.92" y1="499.78" x2="446.89" y2="526.59"/><line class="cls-5" x1="261.3" y1="516.48" x2="455.21" y2="545.21"/><line class="cls-5" x1="251.17" y1="529.52" x2="390.07" y2="550.11"/></g><path id="circle" class="cls-1" d="M213,446c19.25,2.43,53.28,11.37,53.18,48.79-.09,36.45-32.79,48.16-53.18,49.42"/><polyline id="cover-3" data-name="cover" class="cls-1" points="349.95 550.14 212.96 551.47 212.96 432.45 430.82 475.03"/><path id="cover-4" data-name="cover" class="cls-1" d="M419.05,433.1,201.57,393.3A18,18,0,0,0,180.36,411V576.27"/></g></g><g id="laptop"><path id="shape" class="cls-3" d="M365,80.65l660.35-6.08a22.5,22.5,0,0,1,21.6,15.54l139.34,429.05,498.83,3.91s-2,66.69-45.36,66.69H465.92L331.19,126.08A35.5,35.5,0,0,1,365,80.65Z"/><path id="screen" class="cls-1" d="M1020.66,108.4l122.76,367.85a10.12,10.12,0,0,1-9.62,13.32l-616.45-1.25a10.14,10.14,0,0,1-9.68-7.24L399.21,115.73a10.11,10.11,0,0,1,9.68-13L1011,101.49A10.11,10.11,0,0,1,1020.66,108.4Z"/><g id="facetime"><ellipse class="cls-1" cx="644.85" cy="230.94" rx="20.72" ry="28.65" transform="translate(51.17 572.56) rotate(-49.62)"/><path class="cls-1" d="M613.29,304.55c-3.18-25.9,13.37-45.4,40.82-45.4s56.61,19.45,70.31,45.29"/><ellipse class="cls-1" cx="858.96" cy="363.19" rx="20.72" ry="28.65" transform="translate(25.82 782.23) rotate(-49.62)"/><path class="cls-1" d="M827.44,437.12c-3.35-26.06,13.22-45.71,40.78-45.71s57.24,19.86,70.75,46.13"/><ellipse class="cls-1" cx="828.53" cy="203.56" rx="20.72" ry="28.65" transform="translate(136.71 702.84) rotate(-49.62)"/><path class="cls-1" d="M797.05,277.81c-3.53-26.22,13.07-46,40.74-46,27.82,0,57.49,20,70.92,46.47"/><polyline class="cls-1" points="713.1 205.08 745.98 306.15 592.83 306.15 555.78 192.29 673.28 192.29"/><polyline class="cls-1" points="909.88 217.99 929.66 278.77 776.5 278.77 739.45 164.92 892.61 164.92 903.1 197.17"/><polyline class="cls-1" points="795.61 403.6 769.88 324.55 923.04 324.55 960.09 438.41 806.93 438.41 803.13 426.73"/><polygon class="cls-1" points="728.96 204.04 677.1 204.04 670.51 183.78 722.37 183.78 728.96 204.04"/><polygon class="cls-1" points="932.57 217.99 880.71 217.99 874.12 197.74 925.98 197.74 932.57 217.99"/><polygon class="cls-1" points="813.45 424.8 761.58 424.8 754.99 404.54 806.85 404.54 813.45 424.8"/><line class="cls-1" x1="531.88" y1="192.29" x2="568.93" y2="306.15"/><polyline class="cls-1" points="758.32 284.22 765.45 306.15 862.29 306.15"/><polyline class="cls-1" points="730.3 324.34 752.18 324.34 770.77 381.47"/><path class="cls-1" d="M734,148.1c1.19.9,153.49,1,153.16,0"/></g><g id="details"><g id="lines-3" data-name="lines"><path class="cls-3" d="M370.3,80.55s-17.62,1.8-6.53,39.61,133.65,467.6,133.65,467.6"/><line class="cls-3" x1="1180.54" y1="515.92" x2="477.85" y2="515.92"/><line class="cls-3" x1="1679.15" y1="546.79" x2="1151.4" y2="546.79"/><path class="cls-3" d="M1155.2,515.92s-3.35,79.35-45.36,75.08"/></g><g id="usb_ports" data-name="usb ports"><path id="_2-2" data-name="2" class="cls-2" d="M643.47,531.81H602.78a15,15,0,0,0-15,15v14.46a15,15,0,0,0,15,15h40.69a15,15,0,0,0,15-15V546.81A15,15,0,0,0,643.47,531.81Zm9,29.46a9,9,0,0,1-9,9H602.78a9,9,0,0,1-9-9V546.81c0-.14,0-.27,0-.41h58.65c0,.14,0,.27,0,.41Z"/><path id="_1-2" data-name="1" class="cls-2" d="M734,531.81H693.3a15,15,0,0,0-15,15v14.46a15,15,0,0,0,15,15H734a15,15,0,0,0,15-15V546.81A15,15,0,0,0,734,531.81Zm9,29.46a9,9,0,0,1-9,9H693.3a9,9,0,0,1-9-9V546.81c0-.14,0-.27,0-.41H743c0,.14,0,.27,0,.41Z"/></g><g id="cable"><rect class="cls-2" x="500.67" y="535.48" width="44.66" height="36.04" rx="10.95"/><path class="cls-4" d="M134.43,556.24c23.51,34.18,116,28.55,203.39,2.47S508,554,508,554"/></g></g><g id="web_cam" data-name="web cam"><path id="holder" class="cls-6" d="M764.48,68.15H657.86a20.23,20.23,0,0,0-13,4.7l-6.34,5.28,28.21-.26a21.82,21.82,0,0,0-.21,3V87a7.2,7.2,0,0,0,7.2,7.2h90.73c4,0,7.25-5.68,7.25-12.68v-.67C771.73,73.82,768.49,68.15,764.48,68.15Z"/><rect class="cls-6" x="687.56" y="58.49" width="45.45" height="11.84"/><g id="camera"><path class="cls-6" d="M767.17,0H654.7a12,12,0,0,0-12,12V46.49a12,12,0,0,0,12,12H767.17a12,12,0,0,0,12-12V12A12,12,0,0,0,767.17,0Zm-91,52.15a3,3,0,0,1,0,6,10.43,10.43,0,0,1-10.42-10.43V10.77A10.43,10.43,0,0,1,676.16.34a3,3,0,0,1,0,6,4.43,4.43,0,0,0-4.42,4.43v37A4.43,4.43,0,0,0,676.16,52.15ZM733,50.59c-9.51,0-17.25-9.1-17.25-20.29S723.5,10,733,10s17.25,9.1,17.25,20.28S742.53,50.59,733,50.59Z"/><path class="cls-6" d="M733,16c-6.2,0-11.25,6.41-11.25,14.28s5,14.29,11.25,14.29,11.25-6.41,11.25-14.29S739.22,16,733,16Z"/></g><ellipse class="cls-2" cx="700.79" cy="30.3" rx="6.04" ry="7.33"/></g></g><line id="line" class="cls-3" x1="3" y1="591.01" x2="1837.7" y2="591.01"/></g></g></g></svg>