<svg xmlns="http://www.w3.org/2000/svg" viewBox="0 0 1073.23 602.09"><defs><style>.cls-1{fill:none;stroke:#2e186a;stroke-linecap:round;stroke-linejoin:round;stroke-width:6px;}.cls-2{fill:#fe7624;}.cls-3{fill:#2e186a;}</style></defs><g id="Layer_2" data-name="Layer 2"><g id="outline_III" data-name="outline III"><g id="message_sent" data-name="message sent"><g id="clouds"><path class="cls-1" d="M15.05,120.1c12.74-8.37,30.76-13.46,56.18-10.2,0,0,25.11-81.42,102.46-50.26,0,0,32.14-84.35,117.53-47.18l6.06,3.06c24.83,16.68,35.29,44.12,35.29,44.12C409.92,28.48,435,109.9,435,109.9c78.35-10.05,86.39,59.25,86.39,59.25H29.84C3.33,169.15-7.11,134.64,15.05,120.1Z"/><path class="cls-1" d="M770.26,539c69.41-3.41,76.78,60.12,76.78,60.12H355.45c-26.5,0-36.94-34.51-14.79-49.06,12.75-8.36,30.77-13.45,56.18-10.2,0,0,25.12-81.42,102.47-50.25,0,0,9.4-24.66,31.53-41.44"/><path class="cls-1" d="M563.86,294.69c12.74-8.37,30.76-13.46,56.18-10.2,0,0,25.11-81.42,102.46-50.25,0,0,32.15-84.36,117.53-47.19l6.06,3.06c24.83,16.68,35.29,44.13,35.29,44.13,77.35-31.17,102.46,50.25,102.46,50.25,78.36-10,86.39,59.26,86.39,59.26H776.63"/></g><g id="message"><path id="message-2" data-name="message" class="cls-2" d="M670.93,298.91a141.23,141.23,0,0,1,16,.92V122a17.78,17.78,0,0,0-17.79-17.78H202.67A17.79,17.79,0,0,0,184.88,122V399.35a17.79,17.79,0,0,0,17.79,17.78H532.54A140.13,140.13,0,0,1,670.93,298.91Z"/><g id="lines"><path class="cls-1" d="M197.64,113.28,426.74,290.9a14.77,14.77,0,0,0,18.35,0L674.2,113.28"/><line class="cls-1" x1="190.27" y1="359.03" x2="334.14" y2="219.11"/><line class="cls-1" x1="538.96" y1="219.11" x2="627.2" y2="304.93"/></g></g><g id="icon"><circle class="cls-1" cx="670.93" cy="439" r="140.09"/><path id="succes_icon" data-name="succes icon" class="cls-3" d="M781.28,305.34a12.43,12.43,0,0,0-17.11,4L733.56,358.5a106,106,0,1,0,17.86,18.33l33.84-54.38A12.42,12.42,0,0,0,781.28,305.34ZM765.28,441A98.2,98.2,0,1,1,729.4,365.2L674,454.25l-32.08-42.68A12.42,12.42,0,1,0,622,426.49l43,57.18a12.4,12.4,0,0,0,9.93,4.95h.54a12.4,12.4,0,0,0,10-5.84L747,384A97.49,97.49,0,0,1,765.28,441Z"/></g></g></g></g></svg>