<svg xmlns="http://www.w3.org/2000/svg" viewBox="0 0 1523.22 673.47"><defs><style>.cls-1,.cls-6{fill:#2e186a;}.cls-2,.cls-3{fill:none;}.cls-2,.cls-6{stroke:#2e186a;stroke-width:6px;}.cls-2,.cls-3,.cls-4,.cls-6{stroke-linecap:round;stroke-linejoin:round;}.cls-3,.cls-4{stroke:#fe7624;stroke-width:7px;}.cls-4{fill:#fff;}.cls-5{fill:#fe7624;}</style></defs><g id="Layer_2" data-name="Layer 2"><g id="outline_III" data-name="outline III"><g id="process"><g id="smartphone"><g id="shape"><path class="cls-1" d="M959.63,0H730.94a49.45,49.45,0,0,0-49.45,49.45V217.19h18V49.74c0-14.4,12-26.07,26.9-26.07h51.17V34.55A6.51,6.51,0,0,0,784.17,41h94.61a6.52,6.52,0,0,0,6.62-6.42V23.67h51.16c14.86,0,26.9,11.67,26.9,26.07V231h17.71V46c0-21-17.69-38.18-39.45-38.18a3,3,0,0,1,0-6c25.06,0,45.45,19.82,45.45,44.18V231h21.9V49.45A49.45,49.45,0,0,0,959.63,0Z"/><rect class="cls-1" x="681.49" y="358.57" width="18" height="200.12"/><polygon class="cls-1" points="963.46 289.13 963.46 424.92 981.17 428.18 981.17 289.13 963.46 289.13"/><path class="cls-1" d="M981.18,607s0-.08,0-.11V454.42l-17.71-2.82V615c0,14.4-12,26.07-26.9,26.07H726.39c-14.22,0-25.86-10.7-26.82-24.25h-18c1.44,26,23.67,48.36,50,48.36l213.71-1.71a3,3,0,0,1,2.3-2.94c14.51-3.47,24.56-13.41,29.87-29.54A77.39,77.39,0,0,0,981.18,607Z"/><path class="cls-1" d="M987.17,289.12V430.85l10.91,11-10.91,7.23V606.82a81.9,81.9,0,0,1-3.92,25.9c-4.83,14.82-13.65,25.31-25.76,30.78h2.14a49.45,49.45,0,0,0,49.44-49.44V289.12Z"/><path class="cls-1" d="M945.41,664.17a3,3,0,0,0,2.91,2.3,2.79,2.79,0,0,0,.7-.08,46.67,46.67,0,0,0,8.47-2.89H945.33A2.56,2.56,0,0,0,945.41,664.17Z"/><path id="shape-2" data-name="shape" class="cls-2" d="M901.89,195.29c16.47,10.32,36.38,16.81,63.93,17.17"/><path id="shape-3" data-name="shape" class="cls-2" d="M697.14,89.8c20.49-2.28,79.54-18.88,127.11,27.54,5.94,5.79,11.42,11.6,16.6,17.34"/><path id="shape-4" data-name="shape" class="cls-2" d="M734.61,473.68a173.18,173.18,0,0,0-37.47.06"/><path id="shape-5" data-name="shape" class="cls-2" d="M965.82,572.37c-76.08-1-94-10.81-141.57-57.23a151.55,151.55,0,0,0-11.81-10.38"/></g><g id="app"><rect class="cls-3" x="768.65" y="134.68" width="131.27" height="131.27"/><rect class="cls-3" x="770.87" y="277.19" width="33.8" height="33.8"/><line class="cls-4" x1="804.67" y1="277.19" x2="770.87" y2="310.99"/><rect class="cls-3" x="817.02" y="277.19" width="33.8" height="33.8"/><line class="cls-4" x1="850.82" y1="277.19" x2="817.02" y2="310.99"/><rect class="cls-3" x="863.16" y="277.19" width="33.8" height="33.8"/><line class="cls-4" x1="896.97" y1="277.19" x2="863.16" y2="310.99"/><rect class="cls-3" x="736.94" y="350.5" width="199.8" height="69.29" rx="26.21"/><rect class="cls-3" x="735.92" y="433.72" width="199.8" height="69.29" rx="26.21"/><line class="cls-3" x1="897.6" y1="135.62" x2="768.65" y2="265.95"/></g></g><g id="code_lines" data-name="code lines"><rect class="cls-2" x="497.76" y="217.19" width="246.45" height="141.38" rx="21.86"/><g id="code_lines-2" data-name="code lines"><rect class="cls-5" x="589.05" y="270.4" width="8.13" height="11.14" rx="3.72"/><rect class="cls-1" x="530.03" y="270.4" width="55.9" height="11.14" rx="5"/><rect class="cls-1" x="530.03" y="322.13" width="60.96" height="11.14" rx="5"/><rect class="cls-5" x="545.44" y="304.91" width="94.54" height="11.14" rx="5"/><rect class="cls-5" x="645.28" y="304.91" width="51.07" height="11.14" rx="5"/><rect class="cls-1" x="705.49" y="287.69" width="8.13" height="11.14" rx="3.72"/><rect class="cls-1" x="530.03" y="287.66" width="97.76" height="11.14" rx="5"/><rect class="cls-1" x="600.77" y="270.4" width="55.9" height="11.14" rx="5"/><rect class="cls-5" x="632.17" y="287.62" width="68.96" height="11.2" rx="5"/><g id="_" data-name="&lt;/&gt;"><path class="cls-1" d="M540.5,246.23l14.42-8.66a1.43,1.43,0,0,1,.72-.18,1.47,1.47,0,0,1,1.45,1.45,1.48,1.48,0,0,1-.74,1.27L544,247.53,556.35,255a1.48,1.48,0,0,1,.74,1.27,1.47,1.47,0,0,1-1.45,1.45,1.43,1.43,0,0,1-.72-.18l-14.42-8.66a1.46,1.46,0,0,1,0-2.61Z"/><path class="cls-1" d="M572,232a1.37,1.37,0,0,1,1-.42,1.45,1.45,0,0,1,1.45,1.45,1.63,1.63,0,0,1-.12.62l-11.6,29a1.45,1.45,0,0,1-2.35.41,1.39,1.39,0,0,1-.42-1,1.44,1.44,0,0,1,.13-.62l11.59-29A1.52,1.52,0,0,1,572,232Z"/><path class="cls-1" d="M594.77,247.53a1.5,1.5,0,0,1-.79,1.31l-14.43,8.66a1.43,1.43,0,0,1-.72.18,1.47,1.47,0,0,1-1.45-1.45,1.48,1.48,0,0,1,.74-1.27l12.4-7.43-12.4-7.42a1.48,1.48,0,0,1-.74-1.27,1.47,1.47,0,0,1,1.45-1.45,1.43,1.43,0,0,1,.72.18L594,246.23A1.5,1.5,0,0,1,594.77,247.53Z"/></g></g></g><g id="man"><path id="body" class="cls-1" d="M1241.91,550.77A36.54,36.54,0,0,0,1222,517l-31.21-17.1-2.36,10.69a21.79,21.79,0,0,1-42.54-9.43l3.12-14.07a21.31,21.31,0,0,1-8.52-11.24c-.27-.89-.5-1.81-.69-2.74a46,46,0,0,0-28.6.71l-46.38,16.46-59.4-63.12L965,469.52l75.45,86.7a17.72,17.72,0,0,0,19.66,4.95l12.84-5.76-22.63,109.33,20.71.4c-5.46-1-2.75-5.39.85-6.69,2.3-.83,5.6-2.25,8.37-3.36a61.55,61.55,0,0,0-11.33,4.79c-3.58,1.44-7.64-1-8-2.2-.25-.75,1.07-2.34,3.55-4.12l-.94.44c-6.92,1.67-10.2,1.26-8.37-2.46,1.29-2.65,18.8-11.7,22.23-12.72s33.35-5.33,33.35-5.33l7.67,31.79,105.62.65c10.86,0,19.64-7.32,19.46-18.17Zm-53.35,68.14L1116.19,635a2.94,2.94,0,0,1-.65.07,3,3,0,0,1-.65-5.93l69.84-15.5-2.59-36.14a3,3,0,1,1,6-.43l2.78,38.72A3,3,0,0,1,1188.56,618.91Z"/><g id="hand"><path class="cls-2" d="M970.39,450.23s-16.87-.5-27.92-7c-6.6-3.85-15.14-9.13-15.55-11.42-.78-4.27,9.64.1,11.3.66"/><path class="cls-2" d="M979.86,458.13l-4.93-6.88c-9.39-1.51-16.08-3.91-20.58-6.35-5.83-3.17-23.59-17.88-23.93-19.82-.9-5.16,7.9-5,14.38,3.22"/><path class="cls-2" d="M958.44,438.27s-9.06-4.71-13-9.47-6.72-8.5-6-9.45,5.89-.8,8.61,1.93c3.45,4.92,14,10.16,14,10.16-1.16-.17-8-4.87-11.36-8s-4.85-8.89,4.35-4.24c0,0,9.8,5.27,13.43,6.67,0,0,15.39,1.94,20.35,7.11h0c1,1,3.79,3.91,7.81,7.94"/></g><g id="hand_II" data-name="hand II"><path class="cls-2" d="M1063.55,654c-6.92,1.67-10.2,1.26-8.37-2.46,1.29-2.65,18.8-11.7,22.23-12.72s33.35-5.33,33.35-5.33l7.67,31.79H1075.1c-10.49.67-7.46-5.29-3.18-6.83s12.19-5.23,13.37-4.93c0,0-11.29,3.22-16.33,6.36-3.58,1.44-7.64-1-8-2.2s2.91-4.25,8.4-7a115.44,115.44,0,0,1,12.6-5.22"/></g><g id="head"><path id="neck" class="cls-2" d="M1197.92,474.15l-9.45,36.41a21.78,21.78,0,0,1-26,16.55h0a21.78,21.78,0,0,1-16.56-26l2.89-13"/><path id="face" class="cls-2" d="M1210.48,451.9s17.41-33.92-16.73-52c-3.18-1.69-25.16-12.8-35.71,5-7,11.88-12.18,25.61-15.41,36.52,0,.06-6.39,20.51-2.1,34.47s22.46,18.79,33.72,16.33,13.94-4.78,18.75-10.51S1210.44,452,1210.44,452Z"/><path id="hair_II" data-name="hair II" class="cls-1" d="M1142.63,441.35c3.23-10.91,8.36-24.64,15.41-36.52.32-.55.66-1.07,1-1.56-5.74-4.47-15,4.76-21.42,23.73-3.32,9.82-12.39,14.75-12.39,14.75,6.93,6.07,13.17,3.44,17.28,0C1142.59,441.5,1142.63,441.36,1142.63,441.35Z"/><polyline id="nose" class="cls-2" points="1158.78 435.06 1151.43 453.54 1157.49 455.76"/><ellipse id="eye_II" data-name="eye II" class="cls-1" cx="1152.07" cy="433.06" rx="2.97" ry="1.92" transform="translate(299.87 1321.07) rotate(-66.78)"/><ellipse id="eye" class="cls-1" cx="1168.79" cy="440.61" rx="2.97" ry="1.92" transform="translate(486.63 1486.97) rotate(-77.55)"/><path id="brow_II" data-name="brow II" class="cls-2" d="M1183.54,435.06a8.79,8.79,0,0,0-6.71-5.93"/><path id="brow" class="cls-2" d="M1160.78,421.49s-5.34-4.89-9.35-2"/><path id="cap" class="cls-5" d="M1246.94,441.87l-18.43-9.35c2.31-13.75.89-35-24.88-47-40.27-18.71-55,21.63-55,21.63l92.27,46.56a6.66,6.66,0,1,0,6-11.88Z"/><path id="mouth" class="cls-1" d="M1154.45,469.3c-4.12-8.37,15.08-2.71,15.08-2.71S1164.1,485.89,1154.45,469.3Z"/><path id="hair" class="cls-1" d="M1226.33,446.4l-38.93-19.65c-4.52,14.08-10.19,42.38,13.93,49.79,0,0,18.85,6.25,24.26.06,0,0-12.93-9.49-10-17.24,0,0,13.25,19.59,28.78,9.18C1244.37,468.54,1226,462.65,1226.33,446.4Z"/></g></g><g id="bubble_notes" data-name="bubble notes"><g id="bubble"><rect class="cls-2" x="915.42" y="230.97" width="225.5" height="58.15" rx="21.86"/><line class="cls-2" x1="944.4" y1="254.05" x2="1113.47" y2="254.05"/><line class="cls-2" x1="944.4" y1="268.47" x2="1024.63" y2="268.47"/></g><g id="bubble-2" data-name="bubble"><rect class="cls-2" x="624.2" y="558.69" width="225.5" height="58.15" rx="21.86"/><line class="cls-2" x1="653.17" y1="581.77" x2="822.24" y2="581.77"/><line class="cls-2" x1="653.17" y1="596.19" x2="733.41" y2="596.19"/></g><g id="bubble-3" data-name="bubble"><rect class="cls-2" x="363.63" y="107.38" width="225.5" height="58.15" rx="21.86"/><line class="cls-2" x1="392.61" y1="130.46" x2="561.68" y2="130.46"/><line class="cls-2" x1="392.61" y1="144.88" x2="472.85" y2="144.88"/></g></g><g id="hoodie_man" data-name="hoodie man"><g id="body-2" data-name="body"><path id="hoodie" class="cls-2" d="M379.08,391.64c-31.76,9.14-38.8,22-34.91,34.59-12.74,7.65-38.82,26.4-62.14,62.54-32.35,50.13,72,129.37,90.39,129.37s148.07-50.66,148.07-50.66l7.62-23.08a88.58,88.58,0,0,0-24.4-93.31l-.61-.55c-14-12.53-27.39-28.13-40.39-34.29-1.81-9.39-6.89-19.42-20.32-25"/><path id="shape_II" data-name="shape II" class="cls-1" d="M459.9,415c1.41,7.26.86,14.16.68,18.35-.75,17.53-7.35,27-9.33,33.54,12.79-7.63,24.61-25.18,30.37-36.66C478,426.8,466.28,418.15,459.9,415Z"/><path id="shape-6" data-name="shape" class="cls-1" d="M390,468.26c-6.33-2.91-38.49-23.67-43.92-43.88-6.51,3.49-16.65,9.59-22.95,17.11,7.29,4.41,48.35,28.82,66.51,27.51l.73-.06C390.2,468.67,390.08,468.44,390,468.26Z"/><path id="shirt" class="cls-5" d="M439.4,468.44c6.92-20.16,1.66-42.59-3.19-49.18a80.35,80.35,0,0,1-16.9,32.58,201,201,0,0,0-40.19-35.06l.58-.67-1.36.06L371,423.73s35,26.62,46.39,90.76c7.4,41.67,11.2,80.81,11.2,80.81l21.7-1.16S431.86,490.37,439.4,468.44Z"/><g id="head-2" data-name="head"><path id="ear" class="cls-2" d="M369.59,371.66c-3.31,1.45-9.53,5.38-5.7,13.52,3.43,7.29,10.19,5.09,14.23,2.89"/><path id="face-2" data-name="face" class="cls-2" d="M431.9,336.5c7.24,18.52,9.75,40.32,10,50.5"/><path id="neck-2" data-name="neck" class="cls-2" d="M386.35,403.68l-.29,5.13-6.94,8h0a201,201,0,0,1,40.19,35.06A80.82,80.82,0,0,0,438,410.12"/><path id="beard" class="cls-2" d="M378.7,371.74c2.6,1.6,11.21,12.37,14,17.71,0,0,12.68-8.19,32.45-13.38,0,0,10.88-2.45,15.51-2.21,0,0,4,20.31-2.18,32.87S413,421,402.74,416.86s-12.42-6.72-16.09-12.91-15.14-29.81-15.14-29.81Z"/><path id="hair-2" data-name="hair" class="cls-1" d="M374.22,377.4s-8.26-7.76-12.93-16.8a20.4,20.4,0,0,1,4.82-25.1c6.16-5.11,12-3.74,12-3.74S367.56,321,375.94,307a20.92,20.92,0,0,1,13.44-9.62,20.13,20.13,0,0,1,20.74,7.5s8-30.35,41.72-21.89c3.4.85,7.89,4.47,10.26,7.06,14.35,15.73-12.83,45.28-29.33,51.16-18.11,6.46-29.74,6.07-36.85,3C401,345.83,402.9,374.86,374.22,377.4Z"/><polyline id="nose-2" data-name="nose" class="cls-2" points="424.69 367.97 431.02 384.97 424.47 384.91"/><ellipse id="eye_II-2" data-name="eye II" class="cls-1" cx="432.56" cy="366.17" rx="1.85" ry="2.86" transform="translate(-75.19 114.43) rotate(-13.88)"/><ellipse id="eye-2" data-name="eye" class="cls-1" cx="416.93" cy="369.93" rx="1.85" ry="2.86" transform="translate(-19.41 23.1) rotate(-3.1)"/><path id="brow_II-2" data-name="brow II" class="cls-2" d="M404.56,363.23a8.45,8.45,0,0,1,7.29-4.58"/><path id="brow-2" data-name="brow" class="cls-2" d="M426.36,350.4s5.83-3.81,9.19-.46"/><path id="mouth-2" data-name="mouth" class="cls-6" d="M424.43,396.9c-5.75-.54-7.72-3.42-7.72-3.42l9.94-.65S428.24,396.81,424.43,396.9Z"/></g><g id="lines"><path class="cls-2" d="M393.89,463.46s9.75,22.62,11.3,38.59"/><path class="cls-2" d="M446.26,464.49s1.73,19.72,3.44,35.68"/><path class="cls-2" d="M326.86,511.65s10.37-11.44,27.3-.92l15.1-13.42"/><path class="cls-2" d="M392.29,532.39c-1.83-.92-39.5-22.42-39.5-22.42"/><line class="cls-2" x1="485.72" y1="509.53" x2="478.22" y2="492.48"/></g><path id="trousers" class="cls-1" d="M390.43,598.87s-37.54-15.6-83.95-47.77-76,17.65-63.49,38c11,18,72.79,79.71,72.79,79.71l210.34-1.71s49.42-62.19,57.18-71.93c26.23-32.94,4.56-50.36-24.27-52.88-27.14-2.38-100.38,51-109.38,57.85Z"/></g><path id="laptop" class="cls-5" d="M519.09,507.77H383.92a3.81,3.81,0,0,0-3.72,2.94l-18.31,77.52h-34s-3.07,15.9,14.88,15.9h19a3.94,3.94,0,0,0,1.09.16H498.1a3.83,3.83,0,0,0,3.72-2.94l21-88.88A3.83,3.83,0,0,0,519.09,507.77Z"/></g><line id="line" class="cls-2" x1="1520.22" y1="663.47" x2="3" y2="670.47"/></g></g></g></svg>