<svg xmlns="http://www.w3.org/2000/svg" viewBox="0 0 1697.57 840.88"><defs><style>.cls-1{fill:#2e186a;}.cls-2,.cls-3,.cls-4{fill:none;stroke-linecap:round;stroke-linejoin:round;}.cls-2{stroke:#fe7624;}.cls-2,.cls-3{stroke-width:6px;}.cls-3,.cls-4{stroke:#2e186a;}.cls-4{stroke-width:8px;}.cls-5{fill:#fe7624;}</style></defs><g id="Layer_2" data-name="Layer 2"><g id="outlineII"><g id="search"><g id="shape"><path class="cls-1" d="M1034.54,532h-26A14.48,14.48,0,0,1,994,517.55V485.68l-40.26,9.85,10.81,42.38C975.94,693.12,771.5,710.11,763.75,542L637.06,573l0-.06-82.72,18,55.07,219.88L724.26,783.1c15.84,30.6,27.44,51.84,27.44,51.84H1106Z"/></g><g id="flower_II" data-name="flower II"><g id="leaves"><path class="cls-2" d="M221.35,207.7c-23.67-6.94-51.2-11.17-83.2-11.64,0,0-12.16,44.28,2.7,99.62"/><path class="cls-2" d="M221.77,302.7a259.62,259.62,0,0,1-.61-95.31"/><path class="cls-2" d="M221.16,207.39c9.67-54.3,37.48-115.24,95.32-180.49,0,0,61.79,32.53,107.79,101.7"/><path class="cls-2" d="M478.57,387.14S529.18,203.42,705,257.08c0,0-4.5,49.32-29.38,98.59"/><path class="cls-2" d="M353.71,253.62c20.52-70.22,70.85-148,180.81-214.2,0,0,41.17,38.11,65,106.43"/><path class="cls-2" d="M539.8,287.45c-6.62-35.55-25.18-76.51-63.16-122.34,0,0-257.25,116.72-128.26,274.23"/><path class="cls-2" d="M406.09,439.47c-25.27-37.78-116.33-155.12-265.13-142"/><path class="cls-2" d="M141,297.44A293.81,293.81,0,0,0,78.84,310s36.9,85.23,121.9,137.47"/></g><path id="pot" class="cls-3" d="M593.93,589.25l15.5-68.09H635.2a14.47,14.47,0,0,0,14.48-14.47V453.83a14.48,14.48,0,0,0-14.48-14.48H581.89"/><path id="pot-2" data-name="pot" class="cls-3" d="M443.67,439.35H213.46A14.48,14.48,0,0,0,199,453.83v52.86a14.47,14.47,0,0,0,14.47,14.47h24.07L309.41,837"/></g><g id="guy"><g id="arm"><path id="arm-2" data-name="arm" class="cls-3" d="M510.69,836.53c140.93-47.62,388.37-96.72,388.37-96.72L636.88,575.75S578.48,589,518.8,607.32"/><path id="forearm" class="cls-3" d="M363.65,837c-68.42-11.74-48.9-203.5,66.12-372.94,51.55-83.76,66.38-106.52,106-119.55,15.5-5.09,32.1-5.08,49.72,2.71,62.65,27.71,129.23,56.55,84.64,69.22S520.3,515.6,520.3,515.6s1,112.34-4.56,153.29A394.83,394.83,0,0,1,497.46,745"/></g><g id="head"><path class="cls-3" d="M719.11,312.55c-3.1,47,3.91,105.77,11,143.94"/><path id="ear" class="cls-3" d="M966.65,364.65c12.41,1.12,39,7.3,34.67,39.69-3.78,28.34-29,28.15-45.05,25"/><path id="neck" class="cls-3" d="M948.26,473.93l16.33,64C975.65,689,782.1,709.13,764.75,554.9"/><path id="beard" class="cls-3" d="M919.48,371.57S911,428.7,907.23,449.7c0,0-52.51-14.06-126.18-10.36,0,0-40.08,3.41-55.77,9.21,0,0,8.2,73,43.19,108.82s103.1,20.75,133.89-4.13,35.43-36.1,41.32-61,19.75-117.09,19.75-117.09Z"/><path id="hair" class="cls-1" d="M961,388.3s20.86-43.19,27-78.76c5.77-33.43-11.77-67-43.2-79.74-26.31-10.7-34.87-7.22-34.87-7.22s15.63-27.78-25-68.69A74.09,74.09,0,0,0,830.55,132c-49.71,1.32-65.18,43.31-65.18,43.31s-53-97.91-162.21-40.34c-11,5.81-23.45,22.05-29.42,33-36.21,66.3,82.34,145.27,144.15,151.66,67.86,7,110.49-1.44,131.23-19.42C833.52,311,861.26,410.41,961,388.3Z"/><polyline id="nose" class="cls-4" points="777.22 411.28 774.02 475.56 796.14 468.35"/><path id="brow" class="cls-4" d="M845,368.09a30,30,0,0,0-29.08-9.32"/><path id="brow-2" data-name="brow" class="cls-4" d="M762.11,344.61s-17.76-6.06-23.4,8.4"/><path id="mouth" class="cls-1" d="M849.88,487.87c-3.5-4.8-37.59,19.12-24.27,21.27S857.39,498.18,849.88,487.87Z"/></g><g id="binoculars"><path class="cls-5" d="M706.92,483.47l129.54-43.78s17.33-6.6,16.72-29.08-28.88-30.89-28.88-30.89L686.24,360.23Z"/><path class="cls-5" d="M568.3,483.47l129.54-43.78s17.34-6.6,16.73-29.08-28.89-30.89-28.89-30.89l-66.78,4.43-71.28-23.92Z"/><circle class="cls-1" cx="684.79" cy="423.61" r="63.86"/><circle class="cls-1" cx="545.21" cy="424.52" r="63.86"/></g><g id="fingers"><path class="cls-3" d="M585.27,338.38c25.7-18.15,75.1-24.26,85.8-22.67,10.27,1.53,4.31,18.5-26.4,27.86"/><path class="cls-3" d="M601.34,339.86c31-7.6,85.79,21.24,94.61,29.67,9.45,9-16.18,23.2-64.29-4.73,0,0-14.1-9.52-25.49-8.44"/><path class="cls-3" d="M571.11,339.65c31.14-6.83,85,21.54,93.7,29.88,9.45,9-16.18,23.2-64.29-4.73,0,0-14.11-9.52-25.49-8.44"/><path class="cls-3" d="M538.23,343.76c29.21-14,91.35,18.47,100.8,27.49s-16.18,23.19-64.29-4.73c0,0-14.1-9.52-25.48-8.44"/></g></g><g id="flower"><path id="leaves-2" data-name="leaves" class="cls-3" d="M1139.81,177.45,1120,85.63c-5.35-24.82-31.36-40.92-58.09-35.94h0c-26.72,5-44.05,29.13-38.69,54l29.56,137"/><path id="leaves-3" data-name="leaves" class="cls-3" d="M1271.1,184.05l3.18-133.84c.81-25.31-20.62-46.44-47.87-47.19h0c-27.24-.75-50,19.16-50.8,44.47l-4,125.31"/><path id="leaves-4" data-name="leaves" class="cls-3" d="M1391.57,233.7l28-130c5.35-24.83-12-49-38.7-54h0c-26.73-5-52.73,11.12-58.09,35.94l-23.45,94.79"/><path id="leaves-5" data-name="leaves" class="cls-3" d="M1412.4,449.74l123.19-229.39c12.17-22.65,2.26-50.18-22.13-61.49h0c-24.39-11.3-54-2.1-66.2,20.56L1416,237.69"/><line id="leaves-6" data-name="leaves" class="cls-3" x1="1003.29" y1="399.21" x2="1030.32" y2="449.52"/><path id="leaves-7" data-name="leaves" class="cls-3" d="M1032.58,248.34l-37-68.92c-12.17-22.66-41.8-31.86-66.2-20.56h0c-24.39,11.31-34.29,38.84-22.13,61.49L987,368.89"/><path id="leaves-8" data-name="leaves" class="cls-2" d="M1378.4,450l61.44-135c11.91-26.16,3.22-59.31-19.42-74.05h0c-22.63-14.73-50.63-5.47-62.54,20.69l-47.15,103.58L1335.94,249c6.26-28.88-8.76-58.94-33.55-67.12h0c-24.8-8.19-50,8.59-56.24,37.48l-25,115.07L1208,219.81c-3.44-29.85-26.78-51.47-52.12-48.29h0c-25.34,3.19-43.09,30-39.65,59.83l13.64,118.34-29.79-76.92c-10.7-27.62-38.21-40.47-61.44-28.69h0c-23.22,11.77-33.38,43.7-22.68,71.32l52.16,134.65"/><path id="pot-3" data-name="pot" class="cls-3" d="M1365.74,707.73,1407.16,532h24.31A14.48,14.48,0,0,0,1446,517.55V464.48A14.48,14.48,0,0,0,1431.47,450H1008.52A14.48,14.48,0,0,0,994,464.48v53.07A14.48,14.48,0,0,0,1008.52,532h26l72,305.15"/></g><g id="hand_II" data-name="hand II"><path class="cls-3" d="M1300.38,701.86c-11.54-16.52-20.37-34.14-9.31-38.86,15.21-6.49,15,9.89,37.93,25.53s44.41,18.57,67.15,47"/><path class="cls-3" d="M1301.15,704.3c-39.15-21.26-96-22.49-109.64-21.88-8.32.37-11.18,7.42-4.88,16.31"/><path class="cls-3" d="M1282.73,726.39c-39.68-20.83-96.21-28.63-110.63-27.5-11.94.94-12.08,16.23,7,31.53"/><path class="cls-3" d="M1273.3,753c-36.24-16.21-78.37-23.84-90.64-23.17-13.13.72-13.62,20.93,10.37,39.5"/><path class="cls-3" d="M1271.58,779.87c-30.66-12.73-61.18-19.72-71-18.54-19.34,2.32-3.2,36.87,88.59,64.43"/><path class="cls-3" d="M1289.2,825.76c188.84,51.51,176.53-112,13.17-122.2"/></g><line id="line" class="cls-3" x1="1694.57" y1="837.88" x2="3" y2="837.88"/></g></g></g></svg>