<svg xmlns="http://www.w3.org/2000/svg" viewBox="0 0 1278.42 547.66"><defs><style>.cls-1{fill:#2e186a;}.cls-2{fill:none;stroke:#2e186a;stroke-linecap:round;stroke-linejoin:round;stroke-width:6px;}.cls-3{fill:#fe7624;}</style></defs><g id="Layer_2" data-name="Layer 2"><g id="outline_II" data-name="outline II"><g id="_0_notifications" data-name="0 notifications"><g id="zz"><path class="cls-1" d="M931.75,57.55H908.16c-2.58,0-6.08-.55-6.08-4.42s3.13-4.42,6.08-4.42h28.75c4.51,0,6,1.47,6,4.6v2.95c0,1.75-.55,3-2.58,5L910.65,89.53h26.17c2.95,0,6.08.64,6.08,4.42s-3.5,4.42-6.08,4.42H906.13c-6.17,0-6.54-2.58-6.54-5.16v-2.3c0-2.12.09-2.77,1.66-4.24Z"/><path class="cls-1" d="M1000.28,11.93H968.47c-3.48,0-8.2-.75-8.2-6s4.23-6,8.2-6h38.77c6.09,0,8.08,2,8.08,6.21v4c0,2.36-.74,4.1-3.48,6.71l-40,38.15h35.29c4,0,8.2.87,8.2,6s-4.72,6-8.2,6H965.74c-8.33,0-8.83-3.48-8.83-7V56.91c0-2.85.13-3.72,2.24-5.71Z"/></g><g id="bell"><path id="shape" class="cls-2" d="M717,544.66H827l22.85-25.17A55.24,55.24,0,1,0,922.63,440l117.5-128.29a8.63,8.63,0,0,0-7.61-14.37l-55.45,8.13L837.73,180.8c-2.53-2.44-5.16-4.76-7.85-7l-1-.93,0,0c-52.12-43-125.9-72.26-196.74-36.91a192.44,192.44,0,0,0-48.22,34.6,50.73,50.73,0,1,0-43.11,59.28,224,224,0,0,0-13.86,34.45m-18.31-84.6a25.51,25.51,0,1,1,25.51,25.51A25.53,25.53,0,0,1,508.57,179.71Z"/><path id="eye" class="cls-2" d="M703.13,187.31c1,2.84,19,31.82-32.57,54.56"/><path id="eye-2" data-name="eye" class="cls-2" d="M780.62,147.7s-10.23,35.18-53.89,22.77"/><circle id="pillow" class="cls-2" cx="796.13" cy="214.59" r="9.05"/><line id="line" class="cls-2" x1="923.26" y1="439.35" x2="848.97" y2="520.46"/><path id="teddy" class="cls-3" d="M960.35,270.53l-32.28-24.4a43.27,43.27,0,0,0,17.52-38.67,20.61,20.61,0,1,0-21-33.39,43.25,43.25,0,0,0-33.74-4.48A20.6,20.6,0,1,0,861.68,197a43.17,43.17,0,0,0,8.49,43l-.6.73L832.5,250.94a12.69,12.69,0,0,0-8.86,15.61h0a12.67,12.67,0,0,0,7.61,8.43c28.07-9.21,52.09-17.15,57.11-19,13.38-4.85,35.67,5.46,24.54,19.78-7.72,9.93-50.93,49-76.7,72.06v0a18.8,18.8,0,1,0,34.31,15.36l9.35-20.89a27,27,0,0,0,15.77,1.46l2.12,21.65a18.79,18.79,0,0,0,37.41-3.65l-5.35-54.7a87.28,87.28,0,0,0,4-17.72q.39-3.4.52-6.74L945,290.78a12.69,12.69,0,1,0,15.31-20.25Z"/><path id="arm" class="cls-2" d="M759.69,298.77c44.45-14.51,120.43-39.35,129.83-42.76,13.39-4.85,35.68,5.46,24.55,19.78-8.69,11.17-62.32,59.28-85.47,79.89"/></g><g id="pillow-2" data-name="pillow"><path class="cls-2" d="M717,544.66c36.19-20.71,91.61-86,117-114.53a19.42,19.42,0,0,0-2.5-28.19c-33.19-26.13-111.09-85.6-166.91-113.77-72.72-36.71-239.14-26.22-305.25,0-51.49,20.41-132.68,83.64-166.11,110.63a19.4,19.4,0,0,0-2.65,27.6C219.37,460.6,291,540.66,330.05,540.66"/><path class="cls-2" d="M264.46,419.08s45.35,53.82,96.26,0C309.81,365.25,264.46,419.08,264.46,419.08Z"/><ellipse class="cls-1" cx="372.75" cy="419.08" rx="11.72" ry="12.4"/><path class="cls-2" d="M385.74,419.08s45.35,53.82,96.25,0C431.09,365.25,385.74,419.08,385.74,419.08Z"/><ellipse class="cls-1" cx="494.02" cy="419.08" rx="11.72" ry="12.4"/><path class="cls-2" d="M505.75,419.08s45.35,53.82,96.25,0C551.1,365.25,505.75,419.08,505.75,419.08Z"/><ellipse class="cls-1" cx="614.03" cy="419.08" rx="11.72" ry="12.4"/><path class="cls-2" d="M625.75,419.08s45.35,53.82,96.26,0C671.1,365.25,625.75,419.08,625.75,419.08Z"/></g><line id="line-2" data-name="line" class="cls-2" x1="3" y1="544.66" x2="1275.42" y2="544.66"/></g></g></g></svg>