<svg xmlns="http://www.w3.org/2000/svg" viewBox="0 0 1480.02 744.88"><defs><style>.cls-1,.cls-5{fill:#feba91;}.cls-12,.cls-13,.cls-14,.cls-2,.cls-6,.cls-7,.cls-9{fill:none;}.cls-10,.cls-12,.cls-2{stroke:#2e186a;}.cls-10,.cls-12,.cls-13,.cls-14,.cls-2,.cls-5,.cls-6,.cls-7,.cls-9{stroke-linecap:round;stroke-linejoin:round;}.cls-10,.cls-13,.cls-2,.cls-5,.cls-6,.cls-7{stroke-width:6px;}.cls-10,.cls-3{fill:#fff;}.cls-4{fill:#5d21d1;}.cls-5,.cls-6{stroke:#fff;}.cls-14,.cls-7,.cls-9{stroke:#5d21d1;}.cls-8{fill:#fe7624;}.cls-9{stroke-width:7.33px;}.cls-11{fill:#2e186a;}.cls-12{stroke-width:9.08px;}.cls-13{stroke:#fe7624;}.cls-14{stroke-width:6.05px;}</style></defs><g id="Layer_2" data-name="Layer 2"><g id="solid_III" data-name="solid III"><g id="workspace"><g id="notes"><g id="post_it_II" data-name="post it II"><rect class="cls-1" x="71.36" y="185.65" width="131.22" height="131.22" transform="translate(50.46 -21.52) rotate(11)"/><g id="lines"><line class="cls-2" x1="98.11" y1="216.56" x2="189.38" y2="236.21"/><line class="cls-2" x1="94.84" y1="233.65" x2="182.92" y2="252.62"/><line class="cls-2" x1="89.13" y1="251.17" x2="156.62" y2="265.7"/></g></g><g id="post_it" data-name="post it"><rect class="cls-1" x="20.79" y="257.01" width="131.22" height="131.22" transform="translate(-121.98 61.61) rotate(-23.61)"/><g id="lines-2" data-name="lines"><line class="cls-2" x1="46.14" y1="320.27" x2="102.86" y2="296.94"/><line class="cls-2" x1="57.61" y1="340.78" x2="84.17" y2="329.86"/></g><polygon class="cls-3" points="69.85 251.73 68.46 258.88 118.69 240.18 157.79 322.14 164.95 323.54 121.79 232.28 69.85 251.73"/></g></g><g id="laptop"><path id="shape" class="cls-4" d="M835.47,0H1480a0,0,0,0,1,0,0V368.92a63.61,63.61,0,0,1-63.61,63.61H899.08a63.61,63.61,0,0,1-63.61-63.61V0A0,0,0,0,1,835.47,0Z"/><g id="logo"><path id="leaf" class="cls-3" d="M1189.6,277.78s-24,6.18-29.3-16.06C1160.3,261.72,1178.9,253.55,1189.6,277.78Z"/><path class="cls-3" d="M1134.31,220.35a39.79,39.79,0,0,0,8.68,3.87,18.93,18.93,0,0,0-3.34,14.52,18,18,0,0,0,9.14,13.14c-1.17,7.3-3.27,17.82-5.72,21.53-1.2,1.81-.53,4.54,1.5,6.08s4.64,1.32,5.84-.49c3.54-5.37,5.94-18.64,7-25.68.16,0,.31,0,.46-.06,8.43-1.62,13.92-10.73,12.28-20.36a19.11,19.11,0,0,0-3.51-8.17,43.18,43.18,0,0,0,23.9-15.7c12.94-17.27,8.75-40.19-9.37-51.2s-43.29-5.94-56.23,11.32S1116.2,209.33,1134.31,220.35Z"/></g><g id="post-it"><polygon class="cls-1" points="1043.57 388.71 951.81 370.87 924.25 314.82 939.8 234.86 1068.61 259.9 1043.57 388.71"/><g id="lines-3" data-name="lines"><line class="cls-5" x1="959.86" y1="270.9" x2="1035.13" y2="284.27"/><line class="cls-5" x1="957.51" y1="284.13" x2="1032.78" y2="297.5"/><line class="cls-5" x1="955.36" y1="298.01" x2="1000.13" y2="305.96"/><polyline class="cls-6" points="954.12 368.78 964.66 321.39 927.56 313.87"/></g></g><g id="earphones"><path id="cable" class="cls-7" d="M835.47,70H812.6S786.81,328.64,614,296.83,78.55,205.66,65.83,451.61,248.17,564,248.17,564"/><rect id="shape-2" data-name="shape" class="cls-8" x="809.85" y="61.31" width="25.62" height="17.67" rx="4.51"/><path id="shape-3" data-name="shape" class="cls-8" d="M264.09,561c8.49-7,11.37-50.76-24.34-31.5s-9.33,47.15,8.19,39.94S264.09,561,264.09,561Z"/><path id="cable-2" data-name="cable" class="cls-9" d="M365.87,266.94s-423,191-219.47,434.33"/><path id="shape-4" data-name="shape" class="cls-8" d="M150.45,708.65c9.25,6,51.84-4.26,22.82-32.62s-47.79,5.13-35.69,19.71S150.45,708.65,150.45,708.65Z"/><rect id="shape-5" data-name="shape" class="cls-8" x="351.18" y="255.98" width="66.79" height="26.5" rx="13.25"/></g></g><g id="mouse"><rect id="shape-6" data-name="shape" class="cls-10" x="1254.98" y="474.29" width="120.85" height="212.55" rx="39.18" transform="translate(233.42 -366.36) rotate(17.38)"/><g id="icon"><g id="logo-2" data-name="logo"><path id="leaf-2" data-name="leaf" class="cls-11" d="M1291.18,612.9s9-.2,9,8.1C1300.21,621,1293,622.35,1291.18,612.9Z"/><path class="cls-11" d="M1306,637.77a14.21,14.21,0,0,0-2.75-2.08,6.91,6.91,0,0,0,2.38-4.86,6.57,6.57,0,0,0-2.14-5.4c1-2.49,2.62-6,3.8-7.14a1.7,1.7,0,0,0,0-2.27,1.45,1.45,0,0,0-2.11-.31c-1.69,1.6-3.64,6.1-4.6,8.5l-.17,0c-3.11-.12-5.8,2.65-6,6.19a7,7,0,0,0,.57,3.18,15.69,15.69,0,0,0-9.75,3.57c-6,5-6.41,13.49-.91,18.88a15.82,15.82,0,0,0,20.82.64C1311.07,651.61,1311.48,643.16,1306,637.77Z"/></g></g></g><g id="notepad"><g id="notepad-2" data-name="notepad"><rect class="cls-11" x="472.49" y="409.65" width="267.33" height="315.46" transform="matrix(0.99, -0.16, 0.16, 0.99, -84.79, 107.01)"/><rect class="cls-10" x="428.29" y="399.5" width="245.92" height="290.21" transform="translate(-160.92 239.18) rotate(-21.44)"/><line class="cls-12" x1="414.94" y1="490.9" x2="372.62" y2="507.52"/><line class="cls-12" x1="432.54" y1="535.73" x2="390.23" y2="552.35"/><line class="cls-12" x1="450.15" y1="580.57" x2="407.83" y2="597.18"/><line class="cls-12" x1="467.75" y1="625.4" x2="425.44" y2="642.02"/><line class="cls-12" x1="485.36" y1="670.23" x2="443.05" y2="686.85"/></g><g id="lines-4" data-name="lines"><line class="cls-13" x1="461.76" y1="510.41" x2="542.82" y2="478.58"/><line class="cls-13" x1="499.81" y1="511.87" x2="580.87" y2="480.04"/><line class="cls-13" x1="467.67" y1="524.5" x2="484.17" y2="518.02"/><line class="cls-13" x1="487.61" y1="575.27" x2="515.72" y2="564.23"/><line class="cls-13" x1="481.25" y1="559.08" x2="531.35" y2="539.41"/><line class="cls-13" x1="474.12" y1="540.9" x2="502.22" y2="529.87"/><line class="cls-13" x1="514.64" y1="524.99" x2="561.38" y2="506.64"/></g><g id="pens"><g id="pen"><polygon class="cls-8" points="621.63 454.03 616.43 473.15 616.91 654.32 627.41 654.29 626.93 473.13 621.63 454.03"/><polyline class="cls-14" points="616.89 648 635.88 647.95 634.97 604.09"/><rect class="cls-4" x="614.65" y="482.83" width="14.68" height="52.8" rx="4.46" transform="translate(2.92 -3.55) rotate(0.33)"/><line class="cls-14" x1="622.42" y1="585.85" x2="621.78" y2="609.27"/></g><polygon id="pencil" class="cls-8" points="569.78 412.37 567.17 432.02 591.82 611.5 602.22 610.07 577.58 430.59 569.78 412.37"/></g></g><g id="cup"><path id="handle" class="cls-10" d="M469.59,135.61h71.5a0,0,0,0,1,0,0V173a0,0,0,0,1,0,0h-71.5a17.87,17.87,0,0,1-17.87-17.87v-1.62a17.87,17.87,0,0,1,17.87-17.87Z" transform="translate(-16.02 66.86) rotate(-7.58)"/><circle id="mug" class="cls-10" cx="618.1" cy="132.84" r="93.55"/><circle id="juice" class="cls-8" cx="618.1" cy="132.84" r="66.15"/></g><g id="smartphone"><rect id="shape-7" data-name="shape" class="cls-8" x="919.55" y="405.49" width="131.95" height="287.5" rx="15.55" transform="translate(1532.76 -437.39) rotate(89.88)"/><path id="screen" class="cls-6" d="M1119.11,593.52l0-22.17h-4.71a2.83,2.83,0,0,1-2.79-2.86l-.08-41a2.82,2.82,0,0,1,2.77-2.87H1119l0-22.17a11.48,11.48,0,0,0-11.32-11.63l-244.94.5A11.47,11.47,0,0,0,851.39,503l.18,91.07a11.47,11.47,0,0,0,11.32,11.63l244.94-.49A11.49,11.49,0,0,0,1119.11,593.52Z"/></g></g></g></g></svg>