<svg xmlns="http://www.w3.org/2000/svg" viewBox="0 0 1585.59 638.59"><defs><style>.cls-1,.cls-2{fill:none;stroke-linecap:round;stroke-linejoin:round;stroke-width:6px;}.cls-1{stroke:#fe7624;}.cls-2{stroke:#2e186a;}.cls-3{fill:#fe7624;}.cls-4{fill:#2e186a;}</style></defs><g id="Layer_2" data-name="Layer 2"><g id="outline_II" data-name="outline II"><g id="graphs_statistics" data-name="graphs statistics"><g id="flower"><g id="leaves"><g id="leaf_IV" data-name="leaf IV"><path class="cls-1" d="M326.67,274.79C298,248,291.18,248.43,283.82,210c-9.39-49.08-59.2-68.9-84.31-40.44s5.08,83,14.78,94.87c7.41,9.09,4.07,53.93,16.18,97.2"/></g><g id="leaf_II" data-name="leaf II"><path class="cls-1" d="M335.56,409.91c-14-15.13-29.82-27.07-47.5-33-63.91-21.44-64.22-7.57-91.41-39.6s-71.5-26.11-77.85,5,38.15,58.56,50.12,63.29S205,467.44,249,491.51s65.77-23.29,82.51,9.78"/></g><path class="cls-1" d="M437.2,104.74c-5.89-4.44-13.92-7.41-24.55-8.42-52.81-5-63.71,48.44-65.42,93.72s6.72,61.55-19.06,85.65,16.17,56.71,12.6,80.6C338,374.93,322.3,418,361.19,503.21"/><path class="cls-1" d="M437.2,503.21V349.94C402.72,385.93,392,451,388.25,503.21Z"/></g><path id="pot" class="cls-2" d="M436.29,503.21H315.37a14.07,14.07,0,0,0-14,17l25.77,115.35"/></g><g id="whiteboard"><rect id="shape" class="cls-2" x="437.2" y="3" width="763.33" height="631.36"/><g id="graph"><rect class="cls-2" x="871.24" y="474.86" width="42.82" height="66.77"/><rect class="cls-2" x="938.38" y="446.76" width="42.82" height="94.88"/><rect class="cls-2" x="1005.52" y="402.33" width="42.82" height="139.31"/><rect class="cls-3" x="1072.66" y="363.96" width="42.82" height="177.68"/><path id="arrow" class="cls-3" d="M1129.94,272.77a3.05,3.05,0,0,0-2.44-.7l-28,4.47a3,3,0,1,0,1,5.92l18.27-2.91L1064.1,343l-22.34-21.45a3,3,0,0,0-2.22-.83,3,3,0,0,0-2.13,1l-73.17,85L943,390.83a3,3,0,0,0-3.88.24l-65.73,63a3,3,0,0,0,4.15,4.33l63.9-61.26,21.45,16.07a3,3,0,0,0,4.07-.44l72.93-84.74,22.34,21.45a3,3,0,0,0,2.22.83,3,3,0,0,0,2.13-1l58.29-67.72-.38,23.7a3,3,0,0,0,3,3.05h0a3,3,0,0,0,3-2.95l.48-30.29A3,3,0,0,0,1129.94,272.77Z"/></g><g id="layout_II" data-name="layout II"><g id="lines"><line class="cls-2" x1="514.26" y1="472.49" x2="698.27" y2="472.49"/><line class="cls-2" x1="514.26" y1="500.49" x2="649.7" y2="500.49"/><line class="cls-2" x1="510.26" y1="531.92" x2="606.27" y2="531.92"/><line class="cls-2" x1="719.42" y1="472.49" x2="798.85" y2="472.49"/></g><g id="oragne_bar" data-name="oragne bar"><polygon class="cls-3" points="601.49 411.38 622.7 431.33 622.7 391.02 601.49 411.38"/><polygon class="cls-3" points="570.98 432.37 592.78 411.43 570.98 390.92 570.98 432.37"/><polygon class="cls-3" points="679.08 383.98 630.08 383.98 654.83 407.27 679.08 383.98"/><path class="cls-3" d="M597.16,415.55l-24.85,23.86h50.23l0,0Z"/><polygon class="cls-3" points="628.7 432.37 650.5 411.43 628.7 390.92 628.7 432.37"/><polygon class="cls-3" points="510.26 388.1 510.26 435.25 535.07 411.43 510.26 388.1"/><path class="cls-3" d="M539.44,415.55l-24.85,23.86h50.23l0,0Z"/><polygon class="cls-3" points="563.65 383.98 514.64 383.98 539.4 407.27 563.65 383.98"/><polygon class="cls-3" points="680.41 431.33 680.41 391.02 659.21 411.38 680.41 431.33"/><polygon class="cls-3" points="543.78 411.38 564.98 431.33 564.98 391.02 543.78 411.38"/><path class="cls-3" d="M654.88,415.55,630,439.41h50.22l0,0Z"/><polygon class="cls-3" points="621.37 383.98 572.36 383.98 597.12 407.27 621.37 383.98"/><polygon class="cls-3" points="738.13 383.98 686.41 383.98 686.41 439.41 686.41 439.41 738.13 439.41 738.13 439.41 738.13 383.98"/><polygon class="cls-3" points="798.85 383.98 744.13 383.98 744.13 439.41 744.13 439.41 798.85 439.41 798.85 383.98"/><path class="cls-3" d="M680.25,439.41l.18.13s0-.08,0-.13Z"/></g></g><g id="layout"><rect class="cls-2" x="1056.68" y="180.5" width="31" height="31"/><rect class="cls-2" x="975.32" y="124.32" width="118.54" height="35.72"/><line class="cls-2" x1="975.32" y1="211.53" x2="1035.62" y2="211.53"/><line class="cls-2" x1="975.32" y1="196.88" x2="1035.62" y2="196.88"/><line class="cls-2" x1="975.32" y1="182.22" x2="1035.62" y2="182.22"/></g><g id="lines-2" data-name="lines"><line class="cls-2" x1="878.12" y1="295.31" x2="1042.82" y2="295.31"/><line class="cls-2" x1="878.12" y1="309.47" x2="975.32" y2="309.47"/></g><g id="circle_graph" data-name="circle graph"><path class="cls-3" d="M709.16,210l113-57.33A126.62,126.62,0,0,1,835.84,210c0,69.49-57.18,126.68-126.68,126.68a126.75,126.75,0,0,1-99.11-47.79Z"/><line class="cls-2" x1="806.26" y1="113.23" x2="910.9" y2="113.23"/><line class="cls-2" x1="910.9" y1="127.34" x2="855.11" y2="127.34"/><line class="cls-2" x1="910.9" y1="141.55" x2="873.82" y2="141.55"/><line class="cls-2" x1="778.91" y1="225.51" x2="914.05" y2="225.51"/><line class="cls-2" x1="914.05" y1="236.6" x2="888.76" y2="236.6"/><line class="cls-2" x1="632.35" y1="101.55" x2="551.79" y2="101.55"/><line class="cls-2" x1="551.79" y1="112.98" x2="567.96" y2="112.98"/><path class="cls-1" d="M590,291.23l95.48-75.73-121.88,1.36A121.24,121.24,0,0,0,590,291.23Z"/><path class="cls-1" d="M577,160.62a121.31,121.31,0,0,0-8.24,44.09c0,.54,0,1.08,0,1.63l121.78-1.63Z"/><path class="cls-1" d="M773.87,87.42,713.8,193.11l109-54.14A122.34,122.34,0,0,0,773.87,87.42Z"/><path class="cls-4" d="M759.79,90.28A121.17,121.17,0,0,0,700,74.22h-2a121.86,121.86,0,0,0-112.21,77.33L699.27,196Z"/><line class="cls-2" x1="586.35" y1="237.05" x2="505.79" y2="237.05"/><line class="cls-2" x1="505.79" y1="248.48" x2="534.9" y2="248.48"/></g></g><g id="man"><g id="hand_II" data-name="hand II"><path class="cls-2" d="M1116.18,583.08a200.45,200.45,0,0,0-21,2.45c-13.6,2.38-36.71,6.34-39,9.85-3.68,5.57,4.55,9.28,13.33,9"/><path class="cls-2" d="M1080.93,613.4c-13.36,3.34-19.76,2.72-16.32-4.29,2.38-4.85,34.53-21.48,40.83-23.35s61.26-9.8,61.26-9.8l14.09,58.4H1101.2c-19.26,1.23-13.71-9.71-5.84-12.54s22.39-9.61,24.56-9.06c0,0-20.74,5.92-30,11.69-6.58,2.64-14-1.93-14.74-4s5.35-7.81,15.43-12.95a211.33,211.33,0,0,1,23.15-9.61"/></g><path id="body" class="cls-4" d="M1407.6,418.26a67.53,67.53,0,0,0-36.71-62.43l-37.75-20.26L1329,354.14a37.53,37.53,0,0,1-44.75,28.51l-4.87-1.08a37.52,37.52,0,0,1-28.52-44.74l6.27-28.29c-7.19-5-12.92-11.83-15.64-20.65-.18-.57-.33-1.16-.49-1.75L1203.41,266l-.14,291.73,102-20.92-4.92-68.49a3,3,0,1,1,6-.43l5.11,71.12a3,3,0,0,1-2.39,3.15l-105.76,21.7v.77l-57.92,10.55c11.36,2.16,24,58.66,24,58.66h205.38a35.86,35.86,0,0,0,35.86-36.45Z"/><g id="head"><path id="neck" class="cls-2" d="M1341.87,293.14l-12.84,61a37.53,37.53,0,0,1-44.75,28.51l-4.87-1.08a37.52,37.52,0,0,1-28.52-44.74l6.27-28.29"/><path id="face" class="cls-2" d="M1370,244s32-62.3-30.74-95.6c-5.84-3.11-46.21-23.51-65.59,9.15-13,21.82-22.37,47-28.29,67.08,0,.11-11.76,37.67-3.86,63.31s41.24,34.51,61.92,30,25.61-8.78,34.46-19.3,32-54.52,32-54.52Z"/><path id="hair_II" data-name="hair II" class="cls-4" d="M1245.38,224.58c5.92-20,15.34-45.26,28.29-67.08.6-1,1.21-2,1.85-2.87-10.55-8.21-27.59,8.75-39.36,43.6-6.08,18-22.74,27.09-22.74,27.09,12.72,11.14,24.18,6.3,31.74,0C1245.29,224.85,1245.37,224.59,1245.38,224.58Z"/><polyline id="nose" class="cls-2" points="1275.03 213.02 1261.53 246.97 1272.67 251.05"/><ellipse id="eye_II" data-name="eye II" class="cls-4" cx="1262.72" cy="209.34" rx="5.45" ry="3.53" transform="translate(572.48 1287.24) rotate(-66.78)"/><ellipse id="eye" class="cls-4" cx="1293.42" cy="223.22" rx="5.45" ry="3.53" transform="translate(796.69 1438.14) rotate(-77.55)"/><path id="brow_II" data-name="brow II" class="cls-2" d="M1320.52,213a16.16,16.16,0,0,0-12.32-10.89"/><path id="brow" class="cls-2" d="M1278.7,188.09s-9.81-9-17.17-3.7"/><path id="cap" class="cls-3" d="M1437,225.53l-33.86-17.18c4.25-25.24,1.64-64.25-45.7-86.24-74-34.37-101,39.72-101,39.72l169.5,85.53A12.24,12.24,0,1,0,1437,225.53Z"/><path id="mouth" class="cls-2" d="M1289.88,268.44s-8.64,9.79-23.86,1.94"/><path id="hair" class="cls-4" d="M1399.11,233.85l-71.5-36.09c-8.3,25.86-18.72,77.84,25.58,91.46,0,0,34.62,11.48,44.57.1,0,0-23.76-17.43-18.37-31.67,0,0,24.33,36,52.85,16.87C1432.24,274.52,1398.48,263.7,1399.11,233.85Z"/></g></g><line id="line" class="cls-2" x1="3" y1="634.36" x2="1582.59" y2="634.36"/></g></g></g></svg>