<svg xmlns="http://www.w3.org/2000/svg" viewBox="0 0 1671.54 748.52"><defs><style>.cls-1{fill:#2e186a;}.cls-2{fill:#fe7624;}.cls-3,.cls-7{fill:#fff;}.cls-4{fill:#5d21d1;}.cls-5{fill:#feba91;}.cls-6,.cls-8,.cls-9{fill:none;}.cls-6,.cls-7,.cls-8{stroke:#fff;}.cls-6,.cls-7,.cls-8,.cls-9{stroke-linejoin:round;stroke-width:6px;}.cls-7,.cls-8,.cls-9{stroke-linecap:round;}.cls-9{stroke:#2e186a;}</style></defs><g id="Layer_2" data-name="Layer 2"><g id="solid_III" data-name="solid III"><g id="under_construction" data-name="under construction"><g id="barricade"><g id="pillars"><path id="shape" class="cls-1" d="M213.75,229.33h13.05a11.49,11.49,0,0,1,11.49,11.49v504a0,0,0,0,1,0,0h-36a0,0,0,0,1,0,0v-504A11.49,11.49,0,0,1,213.75,229.33Z"/><path id="shape-2" data-name="shape" class="cls-1" d="M868.4,229.33h13.05a11.49,11.49,0,0,1,11.49,11.49v504a0,0,0,0,1,0,0h-36a0,0,0,0,1,0,0v-504A11.49,11.49,0,0,1,868.4,229.33Z"/></g><g id="plank_II" data-name="plank II"><rect id="shape-3" data-name="shape" class="cls-2" x="139.19" y="284.14" width="776.36" height="87.85"/><g id="white_stripes" data-name="white stripes"><polygon class="cls-3" points="261.13 284.14 197.11 284.14 139.19 369.34 139.19 371.99 201.41 371.99 261.13 284.14"/><polygon class="cls-3" points="333.56 371.99 393.28 284.14 329.25 284.14 269.54 371.99 333.56 371.99"/><polygon class="cls-3" points="465.71 371.99 525.42 284.14 461.4 284.14 401.68 371.99 465.71 371.99"/><polygon class="cls-3" points="597.85 371.99 657.57 284.14 593.55 284.14 533.83 371.99 597.85 371.99"/><polygon class="cls-3" points="730 371.99 789.72 284.14 725.69 284.14 665.98 371.99 730 371.99"/><polygon class="cls-3" points="862.15 371.99 915.55 293.43 915.55 284.14 857.84 284.14 798.12 371.99 862.15 371.99"/></g></g><g id="plank"><rect id="shape-4" data-name="shape" class="cls-2" x="139.19" y="439.76" width="776.36" height="87.85"/><g id="white_stripes-2" data-name="white stripes"><polygon class="cls-3" points="261.13 439.76 197.11 439.76 139.19 524.96 139.19 527.61 201.41 527.61 261.13 439.76"/><polygon class="cls-3" points="333.56 527.61 393.28 439.76 329.25 439.76 269.54 527.61 333.56 527.61"/><polygon class="cls-3" points="465.71 527.61 525.42 439.76 461.4 439.76 401.68 527.61 465.71 527.61"/><polygon class="cls-3" points="597.85 527.61 657.57 439.76 593.55 439.76 533.83 527.61 597.85 527.61"/><polygon class="cls-3" points="730 527.61 789.72 439.76 725.69 439.76 665.98 527.61 730 527.61"/><polygon class="cls-3" points="862.15 527.61 915.55 449.05 915.55 439.76 857.84 439.76 798.12 527.61 862.15 527.61"/></g></g></g><g id="screen"><path id="shape-5" data-name="shape" class="cls-4" d="M1455.46,6.35h-75.57v0h-955A50.83,50.83,0,0,0,374.1,57.22V606.31a50.82,50.82,0,0,0,50.83,50.82H1455.46a47.24,47.24,0,0,0,47.24-47.23V53.59A47.24,47.24,0,0,0,1455.46,6.35Z"/><g id="dots"><circle class="cls-2" cx="436.8" cy="39.24" r="14.54"/><circle class="cls-5" cx="493.33" cy="39.24" r="14.54"/><circle class="cls-3" cx="549.86" cy="39.24" r="14.54"/></g><g id="layout"><line id="vertial_line" data-name="vertial line" class="cls-6" x1="1115.16" y1="72.31" x2="1114.77" y2="658.38"/><line id="horizontal_line" data-name="horizontal line" class="cls-7" x1="1457.55" y1="72.71" x2="374.29" y2="72.71"/><g id="code_lines" data-name="code lines"><rect class="cls-2" x="1231.74" y="211.1" width="11.22" height="15.37" rx="4.45"/><rect class="cls-1" x="1150.3" y="211.1" width="77.13" height="15.37" rx="5"/><rect class="cls-1" x="1150.3" y="282.47" width="84.11" height="15.37" rx="5"/><rect class="cls-2" x="1171.56" y="258.71" width="130.45" height="15.37" rx="5"/><rect class="cls-5" x="1150.52" y="175.52" width="130.45" height="15.37" rx="5"/><rect class="cls-5" x="1150.52" y="358.55" width="130.45" height="15.37" rx="5"/><rect class="cls-5" x="1309.31" y="258.71" width="70.46" height="15.37" rx="5"/><rect class="cls-1" x="1392.41" y="234.95" width="11.22" height="15.37" rx="4.45"/><rect class="cls-1" x="1150.3" y="234.9" width="134.9" height="15.37" rx="5"/><rect class="cls-1" x="1247.9" y="211.1" width="77.13" height="15.37" rx="5"/><rect class="cls-2" x="1291.22" y="234.86" width="95.15" height="15.46" rx="5"/><rect class="cls-1" x="1150.3" y="418.94" width="77.13" height="15.37" rx="5"/><rect class="cls-1" x="1150.3" y="490.31" width="84.11" height="15.37" rx="5"/><rect class="cls-2" x="1171.56" y="466.55" width="130.45" height="15.37" rx="5"/><rect class="cls-5" x="1309.31" y="466.55" width="70.46" height="15.37" rx="5"/><rect class="cls-1" x="1392.41" y="442.79" width="11.22" height="15.37" rx="4.45"/><rect class="cls-1" x="1412.02" y="418.94" width="11.22" height="15.37" rx="4.45"/><rect class="cls-1" x="1150.3" y="442.74" width="134.9" height="15.37" rx="5"/><rect class="cls-2" x="1231.74" y="418.94" width="93.29" height="15.37" rx="5"/><rect class="cls-2" x="1330.97" y="418.94" width="77.13" height="15.37" rx="5"/><rect class="cls-2" x="1231.74" y="395.91" width="11.22" height="15.37" rx="4.45"/><rect class="cls-1" x="1150.3" y="395.91" width="77.13" height="15.37" rx="5"/><rect class="cls-1" x="1247.9" y="395.91" width="77.13" height="15.37" rx="5"/><rect class="cls-2" x="1291.22" y="442.7" width="95.15" height="15.46" rx="5"/></g><g id="text_and_picture" data-name="text and picture"><rect class="cls-6" x="833.88" y="463.53" width="141.86" height="144.73" rx="12.43" transform="translate(1809.62 1071.8) rotate(-180)"/><line class="cls-8" x1="801.08" y1="483.42" x2="709.44" y2="483.42"/><line class="cls-8" x1="801.69" y1="523.7" x2="534.16" y2="523.7"/><line class="cls-8" x1="801.69" y1="547.69" x2="534.16" y2="547.69"/><line class="cls-8" x1="801.69" y1="571.67" x2="534.16" y2="571.67"/><line class="cls-8" x1="801.69" y1="596.27" x2="534.16" y2="596.27"/><line class="cls-8" x1="837.28" y1="603.32" x2="972.6" y2="466.69"/></g><g id="text_and_picture_II" data-name="text and picture II"><rect class="cls-6" x="534.16" y="273.76" width="141.86" height="144.73" rx="12.43"/><line class="cls-8" x1="708.83" y1="293.65" x2="800.46" y2="293.65"/><line class="cls-8" x1="708.21" y1="333.93" x2="975.74" y2="333.93"/><line class="cls-8" x1="708.21" y1="357.92" x2="975.74" y2="357.92"/><line class="cls-8" x1="708.21" y1="381.9" x2="975.74" y2="381.9"/><line class="cls-8" x1="708.21" y1="405.89" x2="975.74" y2="405.89"/><line class="cls-8" x1="537.13" y1="413.78" x2="672.46" y2="277.15"/></g><rect id="banner" class="cls-8" x="408.93" y="119.32" width="663.81" height="123.62" rx="11.93"/></g><path id="screen_line" data-name="screen line" class="cls-8" d="M1406.73,3a51,51,0,0,1,50.82,51.11V606.29"/></g><g id="helmet"><path id="shape-6" data-name="shape" class="cls-2" d="M1173.47,695.34l14.11,1.29c.3-1.11.61-2.21.93-3.31l.5-88.93a11.25,11.25,0,0,1,11.32-11.19l60.21.34a181.45,181.45,0,0,1,104.83-32.66c100.18.56,182.24,83.29,182,183.48l-375.85-.27a21,21,0,0,1-21-21.12l0-6.82A21,21,0,0,1,1173.47,695.34Z"/><path id="line" class="cls-9" d="M1529,682.63s-30.75-4.39-39.7,30.54c-.86,3.39-2.64,18.62-2.64,18.62s-189.16,4.86-293.94-34.68c0,0-2.87-29.55,35.22-71.08"/></g><g id="bollard"><path id="shape-7" data-name="shape" class="cls-2" d="M618.59,708.42H591.82L495.76,455.51c-5.3-13.94-21.58-13.71-26.61.39L379.08,708.42H352.91c-5.45,0-9.87,5.41-9.87,12.07v16c0,6.67,4.42,12.07,9.87,12.07H618.59c5.45,0,9.86-5.4,9.86-12.07v-16C628.45,713.83,624,708.42,618.59,708.42Z"/><line id="line-2" data-name="line" class="cls-9" x1="382.97" y1="708.42" x2="587.31" y2="708.42"/><g id="white_stripes-3" data-name="white stripes"><polygon class="cls-3" points="578.05 671.28 392.31 671.28 407.26 628.96 561.96 628.96 578.05 671.28"/><polygon class="cls-3" points="424.9 579.95 543.02 579.95 526.95 537.63 440 537.63 424.9 579.95"/></g></g><g id="bollard-2" data-name="bollard"><path id="shape-8" data-name="shape" class="cls-2" d="M806.64,726.25H791.77L738.42,585.78c-2.94-7.75-12-7.62-14.78.21l-50,140.26H659.08c-3,0-5.48,3-5.48,6.7v8.87c0,3.7,2.45,6.7,5.48,6.7H806.64c3,0,5.48-3,5.48-6.7V733C812.12,729.25,809.67,726.25,806.64,726.25Z"/><line id="line-3" data-name="line" class="cls-9" x1="675.77" y1="726.25" x2="789.27" y2="726.25"/><g id="white_stripes-4" data-name="white stripes"><polygon class="cls-3" points="784.13 705.62 680.96 705.62 689.27 682.11 775.19 682.11 784.13 705.62"/><polygon class="cls-3" points="699.07 654.89 764.67 654.89 755.74 631.38 707.45 631.38 699.07 654.89"/></g></g><line id="line-4" data-name="line" class="cls-9" x1="3" y1="745.33" x2="1668.54" y2="745.33"/></g></g></g></svg>