<svg xmlns="http://www.w3.org/2000/svg" viewBox="0 0 1400.89 525.64"><defs><style>.cls-1{fill:#fff;}.cls-1,.cls-2{stroke:#2e186a;}.cls-1,.cls-2,.cls-4{stroke-linecap:round;stroke-linejoin:round;stroke-width:6px;}.cls-2,.cls-4{fill:none;}.cls-3{fill:#fe7624;}.cls-4{stroke:#fff;}.cls-5{fill:#5d21d1;}</style></defs><g id="Layer_2" data-name="Layer 2"><g id="solid_III" data-name="solid III"><g id="contact_us" data-name="contact us"><g id="mail"><rect class="cls-1" x="471.56" y="164.43" width="573.15" height="357.22" rx="17.78"/><path class="cls-2" d="M478.45,168.17,747.66,377.55a16.86,16.86,0,0,0,21,0l269.21-209.38"/><line class="cls-1" x1="477.72" y1="455.33" x2="641.96" y2="295.6"/><line class="cls-1" x1="875.77" y1="295.6" x2="1043.16" y2="458.39"/></g><g id="headset"><g id="soft_parts" data-name="soft parts"><path id="soft_inside" data-name="soft inside" class="cls-1" d="M323,288.57l64.32-11.87s-29-73.23,24.46-159.87S559.91,60.22,615.67,99.4c0,0-66.38-107.63-149.66-84.63S342.1,88.89,325.76,176.59,323,288.57,323,288.57Z"/><g id="soft_part_II" data-name="soft part II"><path class="cls-1" d="M287.38,343c-2.81-26.76,9.44-52.88,55.28-67.87s92.08,17.13,94.73,26.93,67.34,184.3-4.26,201.53S303.44,460.84,297.5,428.52,287.38,343,287.38,343Z"/><path id="line" class="cls-2" d="M417.9,352.34c-4-11.73-29.37-43.65-52-23.36s-6,102.55,40.6,94.33S417.9,352.34,417.9,352.34Z"/></g><path id="soft_part" data-name="soft part" class="cls-1" d="M622,256.46c-24.27-13.81-79.81-31.83-111.07-19.63s-89.15,42.22-103,171S547,516.14,547,516.14Z"/></g><path id="shape" class="cls-3" d="M656.86,274.69c1.91-10.12,6.39-32.95,6.39-32.95,5.89-28.93,11.37-56,10.25-83.54-2.29-56.61-38.27-106.77-77.68-127.65C510.32-14.76,455,3.73,455,3.73c-183.36,62-150.08,264-146.12,284.89-36.81,17.88-52.48,42.62-49.71,77.23,2.14,18.88-.36,111.12,46.36,137.3s93.41,18.68,124,1.28h0c-69.73,14.23-119.82-50.1-125.66-81.88-5.93-32.32-10-80.15-10-80.15-2.27-21.58,7.36-44.43,39.52-60.7l-.16-1.6.06,0c-.06-.33-.11-.67-.16-1l-.17-1.65-.07.08C328.4,247.8,321.1,170,357.65,108.1c46.84-79.37,100.84-83.93,100.84-83.93C561.29,9,599,120.89,596.67,181.78c-2.11,54.68-32.8,67.68-39,69.77a40.08,40.08,0,0,0-22.5,4c-22.48,4-59.2,53.95-81,104,0,.14.08.29.11.44l-.53.52c-10.21,23.64-17,47.22-17.41,65.86v0a58,58,0,0,0,16.4,55.25l9.69-2a38.59,38.59,0,0,1-3.58,7.09,58.45,58.45,0,0,0,8.13,4.9l50,24.73A44.08,44.08,0,0,0,576.14,496l1.48-3c23,3,53.27-20.16,71.89-56.89,19.51-38.49,19.44-78.46.93-93.86,1.2-11.37.8-28.56,3.87-51.64Q655.48,282.51,656.86,274.69Z"/><g id="microphone"><path id="shape-2" data-name="shape" class="cls-3" d="M569,470c-84.33,19.69-233.17,15.62-395.25-13.4l-1,2.81a25.57,25.57,0,0,0-18.56-16.54L111,433.21a25.59,25.59,0,0,0-30.56,19.38L80,454.73a25.58,25.58,0,0,0,19.37,30.56L142.53,495A25.48,25.48,0,0,0,162,491.5l-.54,1.6s158.34,47.57,387.7,27.67C549.15,520.77,569.3,472.51,569,470Z"/><path id="line-2" data-name="line" class="cls-4" d="M443.73,479.3s87,11.82,112-22.69c35.34-6.33,23.56,42.66,23.56,42.66"/><path id="line-3" data-name="line" class="cls-4" d="M637.22,339s-47-22.81-81.46,117.62"/></g></g><g id="pen"><path class="cls-5" d="M1230.72,501.09l-46.67,19-502.34-1.33c-4.35,0-7.86-5.28-7.84-11.76l.06-20.66c0-6.48,3.55-11.72,7.89-11.71L1184.17,476l46.57,19.24C1232.75,496,1232.74,500.27,1230.72,501.09Z"/><polyline class="cls-2" points="691.64 520.9 691.79 458.03 815.32 460.57"/><line class="cls-4" x1="866.68" y1="495.93" x2="753.48" y2="495.93"/></g><line id="line-4" data-name="line" class="cls-1" x1="3" y1="522.55" x2="1397.89" y2="522.55"/></g></g></g></svg>