<svg xmlns="http://www.w3.org/2000/svg" viewBox="0 0 1709.94 735.58"><defs><style>.cls-1{fill:#5d21d1;}.cls-10,.cls-2,.cls-6,.cls-9{fill:none;}.cls-2{stroke:#fe7624;}.cls-10,.cls-2,.cls-6,.cls-8,.cls-9{stroke-linecap:round;stroke-linejoin:round;}.cls-10,.cls-2,.cls-6,.cls-8{stroke-width:6px;}.cls-3,.cls-8{fill:#fff;}.cls-4{fill:#feba91;}.cls-5{fill:#fe7624;}.cls-6{stroke:#fff;}.cls-7{fill:#2e186a;}.cls-10,.cls-8,.cls-9{stroke:#2e186a;}.cls-9{stroke-width:25px;}</style></defs><g id="Layer_2" data-name="Layer 2"><g id="solid_II" data-name="solid II"><g id="Gaming_II" data-name="Gaming II"><g id="switch-y_thing" data-name="switch-y thing"><path id="base_shape" data-name="base shape" class="cls-1" d="M689.28,365.29h-378a90.76,90.76,0,0,0-90.77,90.76V641.88a90.76,90.76,0,0,0,90.77,90.76h378Z"/><path id="screen_outline" data-name="screen outline" class="cls-2" d="M681.59,394.07h-296a29.08,29.08,0,0,0-29.08,29.08V676.29a29.08,29.08,0,0,0,29.08,29.08h296Z"/><path id="screen" class="cls-3" d="M410.58,417.77a19.66,19.66,0,0,0-19.65,19.66V662a19.65,19.65,0,0,0,19.65,19.65h259.9V417.77Z"/><g id="all_buttons" data-name="all  buttons"><g id="orange_buttopn" data-name="orange buttopn"><circle class="cls-4" cx="293.55" cy="472.79" r="32.67"/><circle class="cls-2" cx="293.55" cy="472.79" r="21.92"/></g><polygon id="cross_button" data-name="cross button" class="cls-5" points="333.3 573.34 307.03 573.34 307.03 547.08 280.95 547.08 280.95 573.34 254.68 573.34 254.68 599.42 280.95 599.42 280.95 625.69 307.03 625.69 307.03 599.42 333.3 599.42 333.3 573.34"/><g id="white_buttons" data-name="white buttons"><rect class="cls-3" x="306.67" y="658.95" width="24.94" height="24.94"/><rect class="cls-3" x="306.67" y="407.11" width="21.51" height="9.07" rx="4.54"/></g></g></g><g id="controler"><path id="base_shape-2" data-name="base shape" class="cls-1" d="M1050,558.22c12.45-3.44,49.82-1.29,49.82-1.29s4.73,29.64,35.08,40.52c71,23.91,94.64-24.2,94.64-24.2,4.58,16,69.15,166.23,141.31,157.64s63.57-205.6-2.86-341.33-157.5-95.07-190.14-88.2-73.88,10.72-106.52,10.31a258.2,258.2,0,0,1-39.51-2.88Z"/><path id="orange_handle" data-name="orange handle" class="cls-5" d="M1309.69,704c18.77,17.89,39.6,29.44,61.11,26.88,45.52-5.42,58.91-85.83,45.9-178.54-32.19-7-63.46,37.86-81.12,70.3C1322.34,647,1314,681.62,1309.69,704Z"/><g id="buttons"><ellipse class="cls-2" cx="1175.37" cy="495.47" rx="43.38" ry="39.95"/><ellipse class="cls-5" cx="1175.37" cy="487.28" rx="43.38" ry="39.95"/><ellipse class="cls-2" cx="1258.98" cy="429.59" rx="23.62" ry="18.3"/><ellipse class="cls-4" cx="1204.38" cy="386.01" rx="23.62" ry="18.3"/><ellipse class="cls-5" cx="1255.64" cy="341.05" rx="23.62" ry="18.3"/><ellipse class="cls-3" cx="1311.47" cy="386.01" rx="23.62" ry="18.3"/><ellipse class="cls-3" cx="1074.86" cy="357.2" rx="29.64" ry="26.2"/><ellipse class="cls-6" cx="1074.86" cy="357.2" rx="40.23" ry="35.57"/></g><g id="outline"><path class="cls-2" d="M1101,517.87s-14.77-45.16,36.72-70.06c19-11,28.7-24.48,20.26-54.44s26.59-84.84,95-85.26,116.06,61.2,105.09,102.56-49.38,56.13-80.19,62.89c-26.17,10.55-32.5,33.34-33.35,44.31s-18,53.17-80.19,50.23C1113.4,564.86,1101,517.87,1101,517.87Z"/><polyline class="cls-2" points="1099.85 556.15 1099.85 513.47 1050.03 513.47"/><line class="cls-2" x1="1229.35" y1="570.52" x2="1229.35" y2="547.62"/></g></g><g id="Gameboy"><path id="base_shape-3" data-name="base shape" class="cls-5" d="M644.85,732.23h359.5s72.27-5.05,72.27-93.93V27.77C1076.62,12.43,1066,0,1053,0H668.52c-13.07,0-23.67,12.43-23.67,27.77Z"/><path id="white_lines" data-name="white lines" class="cls-3" d="M1076.62,39.92H1038.2V20.27A34,34,0,0,0,1031.72,0h-8.05c5.17,4.56,8.53,12,8.53,20.27V39.92H986.77V0h-6V39.92H696.41V0h-6V39.92H644.85v6H1032.2V637.31c0,74.94-50.88,89-66.48,91.54a3,3,0,0,0-2.48,3.38h14.12A84.64,84.64,0,0,0,1008,715.32c20.06-17.56,30.23-43.81,30.23-78V45.92h38.42Z"/><path id="dark_underscreen" data-name="dark underscreen" class="cls-7" d="M689.28,352.48H924.61s58.82.72,58.82-77.77V79c0-7.67-5.11-13.89-11.41-13.89H700.69c-6.3,0-11.41,6.22-11.41,13.89Z"/><rect id="screen-2" data-name="screen" class="cls-8" x="739.08" y="102.01" width="198.37" height="214.11" rx="8.1"/><g id="circle_dark_buttons" data-name="circle dark buttons"><ellipse class="cls-7" cx="882.25" cy="480.25" rx="19.65" ry="21.73" transform="translate(-67.33 152.68) rotate(-9.53)"/><ellipse class="cls-7" cx="925.34" cy="444.89" rx="19.65" ry="21.73" transform="matrix(0.99, -0.17, 0.17, 0.99, -60.88, 159.33)"/><path class="cls-6" d="M954.84,464.77l-64.25,51.8c-13.63,11-33.13,7.43-43.57-7.93h0c-10.43-15.35-7.85-36.7,5.77-47.68l64.26-51.79c13.62-11,33.12-7.44,43.56,7.92h0C971.05,432.44,968.46,453.79,954.84,464.77Z"/></g><g id="dark_buttons" data-name="dark buttons"><line class="cls-9" x1="786.29" y1="614.4" x2="819.86" y2="594.38"/><line class="cls-9" x1="720.1" y1="614.4" x2="755.09" y2="594.38"/></g><g id="cross_button-2" data-name="cross button"><polygon id="button" class="cls-7" points="798.65 446.52 761.42 446.52 761.42 409.39 726.14 409.39 726.14 446.52 688.9 446.52 688.9 481.7 726.14 481.7 726.14 518.83 761.42 518.83 761.42 481.7 798.65 481.7 798.65 446.52"/><ellipse id="circle" class="cls-2" cx="743.78" cy="464.11" rx="8.68" ry="8.65"/></g><line id="line" class="cls-10" x1="761.84" y1="314.61" x2="761.84" y2="102.01"/><line id="baterry_text" data-name="baterry text" class="cls-6" x1="703.59" y1="214.29" x2="721.8" y2="214.29"/><ellipse id="battery_lampp" data-name="battery lampp" class="cls-5" cx="712.69" cy="191.11" rx="6.88" ry="8.08"/><g id="speakers"><line class="cls-6" x1="952.38" y1="584.37" x2="977.15" y2="642.1"/><line class="cls-6" x1="932.07" y1="596.38" x2="956.84" y2="654.11"/><line class="cls-6" x1="911.75" y1="608.39" x2="936.52" y2="666.12"/><line class="cls-6" x1="891.43" y1="620.4" x2="916.2" y2="678.13"/><line class="cls-6" x1="871.11" y1="632.4" x2="895.88" y2="690.14"/><line class="cls-6" x1="850.8" y1="644.41" x2="875.57" y2="702.14"/></g></g><line id="line-2" data-name="line" class="cls-10" x1="3" y1="732.58" x2="1706.94" y2="732.58"/></g></g></g></svg>