<svg xmlns="http://www.w3.org/2000/svg" xmlns:xlink="http://www.w3.org/1999/xlink" viewBox="0 0 1378.26 784.64"><defs><style>.cls-1,.cls-11{fill:#feba91;}.cls-13,.cls-2{fill:#fff;}.cls-14,.cls-15,.cls-2,.cls-3,.cls-8,.cls-9{stroke:#2e186a;}.cls-10,.cls-11,.cls-12,.cls-14,.cls-15,.cls-2,.cls-3,.cls-7,.cls-8,.cls-9{stroke-linecap:round;stroke-linejoin:round;}.cls-11,.cls-12,.cls-14,.cls-15,.cls-2,.cls-3,.cls-7,.cls-8,.cls-9{stroke-width:6px;}.cls-10,.cls-12,.cls-14,.cls-15,.cls-3,.cls-7,.cls-8,.cls-9{fill:none;}.cls-4{fill:#5d21d1;}.cls-5{fill:#fe7624;}.cls-6{fill:#2e186a;}.cls-7{stroke:#fe7624;}.cls-8{stroke-dasharray:10.42 10.42;}.cls-9{stroke-dasharray:12;}.cls-10{stroke:#fff;stroke-width:4px;}.cls-11,.cls-12{stroke:#5d21d1;}.cls-14{stroke-dasharray:12.57 12.57;}.cls-15{stroke-dasharray:10.9 10.9;}.cls-16{clip-path:url(#clip-path);}</style><clipPath id="clip-path"><rect class="cls-1" x="400.91" y="434.88" width="116.26" height="288.52" rx="23.43" transform="translate(-165.28 183.73) rotate(-19.25)"/></clipPath></defs><g id="Layer_2" data-name="Layer 2"><g id="solid"><g id="Pandemic_Medical_I" data-name="Pandemic/Medical I"><g id="designer"><g id="arms"><path class="cls-2" d="M478.6,561.6l-10.92,97.29s-59.43,64.76-114,85c-72.35,26.78-98.95-11.49-68.44-79.47l68.44-116,46-48.23,79,36.11"/><path class="cls-2" d="M870.26,465.81S953,527.27,1004.08,629.46c33.2,70.77-102.54,67.92-198.25,57.42-61.67-37.39-61.32-50.18-61.32-50.18Z"/></g><g id="forearm_lines" data-name="forearm lines"><path id="II" class="cls-3" d="M930.45,603.64c-37.9-14.39-76.4-9.4-107.51,6.17"/><path id="I" class="cls-3" d="M401.94,629.14s-66.83,12.45-96.51,32.45"/></g><path id="shirt" class="cls-4" d="M757,381.87C811.63,398.53,889,478.06,889,478.06L800.8,572.62l22.14,53.52-40.23,48.71,17.87,106.92L454,783.21l28-127.45L337,567.19l68.29-108.63s18.17-33.87,77.86-47.77C531.33,399.56,704.68,365.9,757,381.87Z"/><path id="neck" class="cls-2" d="M656.5,359.65,655.58,384,676,382.57c7.83,4.84,19.91,82.85-53.24,98.56-56.64,12.16-83.9-45.19-91.82-78.06l22.45-5.76,16.82-96.67Z"/><g id="head"><g id="bun"><rect id="hairband" class="cls-5" x="546.14" y="66.6" width="22.19" height="39.06" transform="matrix(-0.94, 0.33, -0.33, -0.94, 1111.81, -15.73)"/><circle id="bun-2" data-name="bun" class="cls-6" cx="538.38" cy="39.08" r="39.07"/></g><path id="ear" class="cls-2" d="M569.8,273.71l-7.95,1.59s-46.07,5.4-43.48-36.85c2-32,33.54-30.11,48.67-27.3"/><path id="face" class="cls-2" d="M734.23,255.91c-1.48,19.27-18.36,106.89-80.14,106.26s-96.51-61-96.13-118.84,31.53-102.42,70.65-102.92S744.94,116.41,734.23,255.91Z"/><path id="hair" class="cls-6" d="M572.42,88.77c34.73-11,72-16.09,104.83-3.06,99.39,44.94,99.65,119.89,57.85,154h0c1.59-53.1-11.39-78.85-29.64-91-19.94,31.78-84.35,59.31-143.34,60-.13.53-.24,1.06-.36,1.59-16.18-2-41.63-.56-43.39,28.12-2.43,39.56,37.82,37.35,43,36.9.68,3.13,8.93,31.42,8.93,31.42l-8.92,40.59L430.15,327a11.76,11.76,0,0,1-10.88-15.51C435.05,264.49,460.77,125.79,572.42,88.77Z"/><polyline id="nose" class="cls-3" points="663.75 280.31 682.1 282.53 678.28 208.65"/><path id="brow_II" data-name="brow II" class="cls-3" d="M696.71,208.84s13.91-6.33,19.85,4.4"/><path id="brow" class="cls-3" d="M625.81,205.82s12.33-9,20.33.27"/><ellipse id="eye_II" data-name="eye II" class="cls-6" cx="637.81" cy="226.86" rx="9.48" ry="6.13" transform="translate(315.52 822.17) rotate(-81.15)"/><ellipse id="eye" class="cls-6" cx="704.36" cy="232.55" rx="9.48" ry="6.13" transform="translate(397.88 908.04) rotate(-83.87)"/><g id="mask"><line class="cls-7" x1="564.57" y1="302.66" x2="550.97" y2="274.32"/><line class="cls-7" x1="582.95" y1="256.7" x2="554.38" y2="210.25"/><path class="cls-1" d="M577.46,246.59s-1.19,48-19.5,49.13c6.86,21.09,65.93,106.3,132.5,60.71a97.6,97.6,0,0,0,29.76-33.26c16.19-29,15-47.64,15-47.64s-27.7-28.34-49.65-32.91-30.72,11.3-59.78,16.76A58.32,58.32,0,0,1,577.46,246.59Z"/></g><g id="glasses"><ellipse class="cls-7" cx="629.1" cy="223.82" rx="51.29" ry="38.91" transform="translate(313.55 812.29) rotate(-81.38)"/><ellipse class="cls-7" cx="726.82" cy="235.75" rx="48" ry="36.41" transform="translate(384.83 919.05) rotate(-81.38)"/><line class="cls-7" x1="691.45" y1="226.86" x2="668.66" y2="224.36"/><line class="cls-7" x1="554.38" y1="210.25" x2="590.87" y2="207.92"/></g></g></g><g id="pandemic_shopping" data-name="pandemic shopping"><g id="toilet_paper_sheets" data-name="toilet paper sheets"><path class="cls-2" d="M865.59,551.91c10.11-18.3,30.29-41.3,92.81-39.95,69.79,1.51,72.51,43.72,107.77,131.05,2.79,8.86-34.56,28.32-34.75,71.48-50.92-35-12.19-128.8-88.85-120.18-55,7.45-66.37-5.44-66.37-5.44Z"/><path class="cls-3" d="M905.27,595.08l2.22-5.57"/><path class="cls-8" d="M911.34,579.83c5.81-14.62,14.63-36.84,21.1-53.31"/><path class="cls-3" d="M934.35,521.67l2.18-5.59"/><path class="cls-9" d="M992.55,618.23s30.77-34.61,33.34-69.84"/></g><g id="packs_of_pasta" data-name="packs of pasta"><g id="I-2" data-name="I"><rect class="cls-2" x="768.89" y="386.24" width="101.43" height="244.47" transform="translate(482.39 -395.17) rotate(37.72)"/><line class="cls-2" x1="711.62" y1="579.49" x2="795.82" y2="470.63"/><line class="cls-7" x1="719.7" y1="585.74" x2="838.4" y2="432.27"/><line class="cls-7" x1="727.78" y1="591.99" x2="846.48" y2="438.52"/><line class="cls-7" x1="735.85" y1="598.23" x2="854.56" y2="444.77"/><line class="cls-7" x1="743.93" y1="604.48" x2="862.63" y2="451.02"/><line class="cls-7" x1="752.01" y1="610.73" x2="870.71" y2="457.26"/><line class="cls-7" x1="760.09" y1="616.98" x2="878.79" y2="463.51"/><line class="cls-7" x1="768.17" y1="623.23" x2="886.87" y2="469.76"/><line class="cls-7" x1="776.25" y1="629.48" x2="894.95" y2="476.01"/><path class="cls-2" d="M900.52,486.75s-69.45-76-141.61,17.31l98.18-126.94,80.23,62.06Z"/><polygon class="cls-2" points="937.32 439.18 857.09 377.12 872.44 368.51 952.67 430.56 937.32 439.18"/></g><g id="II-2" data-name="II"><rect class="cls-2" x="683.39" y="299.86" width="101.43" height="389.6" transform="translate(261.86 -254.06) rotate(23.79)"/><line class="cls-7" x1="617.14" y1="655.99" x2="731.18" y2="397.26"/><line class="cls-7" x1="626.48" y1="660.11" x2="763.27" y2="349.77"/><line class="cls-7" x1="635.83" y1="664.23" x2="772.61" y2="353.89"/><line class="cls-7" x1="645.17" y1="668.35" x2="781.96" y2="358.01"/><line class="cls-7" x1="654.52" y1="672.47" x2="791.3" y2="362.13"/><line class="cls-7" x1="663.86" y1="676.59" x2="800.65" y2="366.25"/><line class="cls-7" x1="673.21" y1="680.71" x2="809.99" y2="370.36"/><line class="cls-7" x1="682.55" y1="684.83" x2="819.34" y2="374.48"/><line class="cls-7" x1="691.9" y1="688.94" x2="828.68" y2="378.6"/><path class="cls-2" d="M836.68,387.68s-85.71-57-133.28,50.91l64.72-146.85,92.82,40.91Z"/><polygon class="cls-2" points="860.94 332.65 768.12 291.74 768.53 272.21 861.35 313.12 860.94 332.65"/></g></g><g id="cans_of_food" data-name="cans of food"><g id="III"><path class="cls-4" d="M916.64,557.09,835,508.39l-42.54,67.08h0c-9.21,14.52,2.9,25.9,20.13,52.46,7.11-40.09,80.56-35.53,80.56-35.53Z"/><ellipse class="cls-4" cx="876.2" cy="531.97" rx="31.13" ry="47.4" transform="translate(-42.32 986.98) rotate(-57.62)"/><ellipse class="cls-10" cx="887.58" cy="538.6" rx="10.77" ry="16.39" transform="translate(-42.64 999.67) rotate(-57.62)"/><path class="cls-10" d="M887.12,549.62a10.08,10.08,0,0,1-.1-11.37c2.7-4.27,6.73-6,10.49-5"/><path class="cls-10" d="M916,562.07c-9.21,14.52-33.51,14.59-55.61.57-18-11.39-28.27-28.1-26.56-42"/></g><g id="II-3" data-name="II"><path class="cls-4" d="M814,498.06l-91.86-24.44L699.65,549.8h0c-4.87,16.48,11.54,35.86,36.64,43.28s49.41.07,54.28-16.42l2.44-2-3.94,1.66Z"/><ellipse class="cls-4" cx="768.23" cy="484.99" rx="31.13" ry="47.4" transform="translate(85.43 1084.31) rotate(-73.54)"/><ellipse class="cls-10" cx="780.99" cy="488.25" rx="10.77" ry="16.39" transform="translate(91.45 1098.89) rotate(-73.54)"/><path class="cls-10" d="M783.57,499a10.09,10.09,0,0,1-3.21-10.91c1.43-4.84,4.81-7.63,8.71-7.69"/><path class="cls-10" d="M806.82,507.18c-11.07,14.45-38.59,15.63-62.13,5-23.86-10.79-26.79-24.12-21.92-40.61"/></g><g id="I-3" data-name="I"><path class="cls-11" d="M726.09,557.25l106.5,23.15L813.2,669.63h0c-4.2,19.31-31.44,29.79-60.85,23.4S702.5,665.8,706.7,646.48h0Z"/><ellipse class="cls-1" cx="779.86" cy="566.41" rx="35.79" ry="54.49" transform="translate(60.75 1208.2) rotate(-77.74)"/><ellipse class="cls-12" cx="765.2" cy="562.64" rx="12.38" ry="18.84" transform="translate(52.88 1190.9) rotate(-77.74)"/><path class="cls-12" d="M756.67,572a11.61,11.61,0,0,0,9.27-9.23c1.23-5.67-.64-10.36-4.53-12.57"/><ellipse class="cls-12" cx="779.86" cy="566.41" rx="35.79" ry="54.49" transform="translate(60.75 1208.2) rotate(-77.74)"/></g></g><g id="toilet_paper" data-name="toilet paper"><g id="III-2" data-name="III"><path class="cls-2" d="M602,481.57V596.43c0,24-35.32,43.36-78.89,43.36s-78.89-19.41-78.89-43.36V481.57Z"/><ellipse class="cls-2" cx="523.08" cy="476.72" rx="78.89" ry="33.13"/><line class="cls-13" x1="523.08" y1="511.3" x2="523.08" y2="636.41"/><line class="cls-3" x1="523.08" y1="511.3" x2="523.08" y2="517.3"/><line class="cls-14" x1="523.08" y1="529.87" x2="523.08" y2="624.12"/><line class="cls-3" x1="523.08" y1="630.41" x2="523.08" y2="636.41"/><ellipse class="cls-6" cx="523.08" cy="475.28" rx="22.86" ry="6.29"/></g><g id="II-4" data-name="II"><path class="cls-2" d="M730.41,500.32V615.17c0,24-35.32,43.37-78.89,43.37s-78.9-19.42-78.9-43.37V500.32Z"/><ellipse class="cls-2" cx="651.52" cy="495.47" rx="78.89" ry="33.13"/><line class="cls-13" x1="607.99" y1="524.04" x2="607.99" y2="649.14"/><line class="cls-3" x1="607.99" y1="524.04" x2="607.99" y2="530.04"/><line class="cls-14" x1="607.99" y1="542.61" x2="607.99" y2="636.86"/><line class="cls-3" x1="607.99" y1="643.14" x2="607.99" y2="649.14"/><ellipse class="cls-6" cx="651.52" cy="494.03" rx="22.86" ry="6.29"/></g><g id="I-4" data-name="I"><path class="cls-2" d="M694.15,545.58v99.83c0,24-35.32,43.36-78.89,43.36s-78.89-19.41-78.89-43.36V545.58Z"/><ellipse class="cls-2" cx="615.26" cy="540.73" rx="78.89" ry="33.13"/><line class="cls-13" x1="631" y1="573.85" x2="631" y2="683.94"/><line class="cls-3" x1="631" y1="573.85" x2="631" y2="579.85"/><line class="cls-15" x1="631" y1="590.75" x2="631" y2="672.49"/><line class="cls-3" x1="631" y1="677.94" x2="631" y2="683.94"/><ellipse class="cls-6" cx="615.26" cy="539.29" rx="22.86" ry="6.29"/></g></g><g id="antibacterial_gel" data-name="antibacterial gel"><rect class="cls-4" x="391.94" y="384.32" width="12.25" height="49.79" transform="translate(-111.12 151.07) rotate(-18.91)"/><rect class="cls-4" x="387.04" y="415.85" width="42.89" height="49.79" transform="translate(-120.78 156.14) rotate(-18.91)"/><rect class="cls-1" x="400.91" y="434.88" width="116.26" height="288.52" rx="23.43" transform="translate(-165.28 183.73) rotate(-19.25)"/><g class="cls-16"><path class="cls-13" d="M512.11,522.85l-15.2-43.54L469,489a42.68,42.68,0,0,0-71.3,26.18L367.66,527l14.63,41.89,34.22-13a42.69,42.69,0,0,0,64.21-22.49Z"/></g><path class="cls-4" d="M410.77,365.17s2.17,16.34-22.75,23.45c-24.66,7-28.06-11.2-22.7-13.75,3.72-1.77,26.43-13.1,40-19.89a61.58,61.58,0,0,1,22.6-6.32,72.75,72.75,0,0,1,7.33-.35c7.79.39,7.81,9.52-1.15,10C423.79,358.78,410.77,365.17,410.77,365.17Z"/><polygon class="cls-4" points="469 524.18 461.45 502.07 448.76 506.41 444.42 493.71 422.31 501.26 426.65 513.96 413.95 518.3 421.5 540.41 434.2 536.07 438.53 548.77 460.64 541.22 456.31 528.52 469 524.18"/></g></g><g id="gloves"><path id="I-5" data-name="I" class="cls-5" d="M605.91,573.07c-5.22-2.39-50.15,5.66-74.78,9.74,0,0,35.26-9.37,50-15.71s11.12-18,3.27-18.68c-4.33-.35-41.24,9.21-77.28,23.15,2.84-8.1,11.35-35.39-2.51-37.86-15.91-2.84-15.81,32.8-48.27,62.36-7.66,5-13.77,10.1-17.44,15.21L363,634.35,399.14,756.1,462.57,667c21.71,11.33,78.37-15.76,78.37-15.76,47.67-3.59,49.74-18.26,41.47-20.48S534,629.39,534,629.39s5.1-4.27,39-4.8,30.91-19.86,23.94-21.59-64.66,3.84-64.66,3.84l61.58-12.5C610.61,592.05,613.87,576.7,605.91,573.07Z"/><path id="II-5" data-name="II" class="cls-5" d="M833.25,600.58l-107.5,25.29c-1.67-.52-4.36-1.47-4.36-1.47-45.94-1.6-68.94-31.14-79.84-18.7-7.58,8.65,6.85,20.92,16.36,27.6C624,642.94,591.46,657,588,659.81c-6.14,4.94-2.58,16.65,13.18,13.64s50.22-15,50.22-15c-22.7,10.42-64.41,28.94-67.4,33.83-4.55,7.48,6.75,18.36,22,10.83l58-24.17S613.05,706.66,608.25,712s3.59,23,31.92,4.47,35-17.86,35-17.86-33.5,24.31-39.1,30.78,17.89,23,47.19-5.35c0,0,54.19-19.7,61.3-31L859.08,729.3Z"/></g><line id="line" class="cls-3" x1="3" y1="781.64" x2="1375.26" y2="781.64"/></g></g></g></svg>